<?xml version="1.0" standalone="no"?>
<!DOCTYPE svg PUBLIC "-//W3C//DTD SVG 1.1//EN" "http://www.w3.org/Graphics/SVG/1.1/DTD/svg11.dtd" >
<svg xmlns="http://www.w3.org/2000/svg">
<metadata>Generated by IcoMoon</metadata>
<defs>
<font id="icomoon" horiz-adv-x="1024">
<font-face units-per-em="1024" ascent="819" descent="-205" />
<missing-glyph horiz-adv-x="1024" />
<glyph unicode="&#x20;" d="" />
<glyph unicode="&#xe900;" glyph-name="uniE900" horiz-adv-x="1152" d="M551 376q10-11 25-11t26 11l217 228q48 50 45 121t-56 117q-46 40-106.5 34.5t-103.5-49.5l-22-24-22 23q-42 45-103 50.5t-107-34.5q-53-46-56-117t45-121l218-228zM1131 221q-18 16-42.5 15.5t-43.5-15.5l-184-148q-17-14-37.5-21t-42.5-7h-237q-13 0-22.5 9.5t-9.5 22.5 9.5 22.5 22.5 9.5h157q23 0 42.5 15t23.5 38q5 30-14.5 52.5t-48.5 22.5h-320q-41 0-79-13.5t-69-39.5l-93-75h-111q-13 0-22.5-9.5t-9.5-22.5v-192q0-13 9.5-22.5t22.5-9.5h714q21 0 41.5 7t38.5 21l302 242q23 18 24 47.5t-21 50.5z" />
<glyph unicode="&#xe901;" glyph-name="uniE901" d="M1008 320c0-273.994-222.086-496-496-496s-496 222.006-496 496c0 273.834 222.086 496 496 496s496-222.166 496-496zM525.31 652c-108.994 0-178.51-45.914-233.098-127.516-7.072-10.572-4.706-24.83 5.43-32.516l69.398-52.62c10.41-7.894 25.242-6.016 33.33 4.244 35.728 45.316 60.226 71.594 114.606 71.594 40.858 0 91.396-26.296 91.396-65.916 0-29.952-24.726-45.334-65.068-67.952-47.048-26.374-109.304-59.2-109.304-141.318v-8c0-13.254 10.746-24 24-24h112c13.254 0 24 10.746 24 24v2.666c0 56.924 166.372 59.294 166.372 213.334 0 116.004-120.33 204-233.062 204zM512 156c-50.73 0-92-41.27-92-92 0-50.728 41.27-92 92-92s92 41.272 92 92c0 50.73-41.27 92-92 92z" />
<glyph unicode="&#xe906;" glyph-name="uniF000" d="M971 771q0-20-25-45l-361-361v-439h183q15 0 26-11t11-25q0-15-11-26t-26-11h-512q-15 0-26 11t-11 26q0 14 11 25t26 11h183v439l-361 361q-25 25-25 45 0 13 10 21 11 7 22 10 12 2 25 2h804q13 0 25-2 11-3 22-10 10-8 10-21v0z" />
<glyph unicode="&#xf001;" glyph-name="uniF001" d="M878 749v-640q0-29-20-51-19-22-49-34-30-13-59-19t-55-6-55 6q-30 6-59 19-30 12-50 34-19 22-19 51t19 51q20 22 50 34 29 13 59 19 29 6 55 6 60 0 110-23v307l-439-135v-405q0-29-20-51-19-22-49-35-30-12-59-18t-55-6-55 6q-30 6-59 18-30 13-50 35-19 22-19 51 0 28 19 51 20 22 50 34 29 12 59 18 29 6 55 6 60 0 110-22v553q0 17 10 32 11 15 28 20l476 147q7 2 16 2 23 0 39-16t16-39v0z" />
<glyph unicode="&#xf002;" glyph-name="uniF002" horiz-adv-x="951" d="M658 402q0 105-75 180-75 76-181 76-105 0-181-76-75-75-75-180 0-106 75-181 76-75 181-75 106 0 181 75t75 181zM951-74q0-30-22-51-22-22-51-22-31 0-52 22l-196 195q-102-71-228-71-81 0-156 32t-129 86-85 128q-32 75-32 157 0 81 32 156 31 74 85 128t129 86 156 32q82 0 157-32 74-32 128-86t86-128q32-75 32-156 0-126-71-228l196-196q21-22 21-52v0z" />
<glyph unicode="&#xf003;" glyph-name="uniF003" d="M951 18v438q-18-20-40-37-153-118-243-193-29-25-47-39-19-13-50-27t-58-14h-2q-27 0-58 14t-50 27q-18 14-47 39-90 75-243 193-22 17-40 37v-438q0-8 6-13 5-6 12-6h842q7 0 12 6 6 5 6 13v0zM951 618v22q-1 7-2 7-2-1-3 5-2 5-5 4-4-1-8 2h-842q-7 0-12-6-6-5-6-13 0-96 84-162 110-87 229-181 4-3 20-17 17-14 27-21 9-8 25-18 16-11 29-16t24-5h2q11 0 24 5t29 16q16 10 25 18 10 7 27 21 16 14 20 17 119 94 229 181 31 25 57 66 27 41 27 75v0zM1024 639v-621q0-38-27-65t-64-27h-842q-37 0-64 27t-27 65v621q0 38 27 65t64 27h842q37 0 64-27t27-65z" />
<glyph unicode="&#xf004;" glyph-name="uniF004" d="M512-74q-15 0-25 10l-357 344-15 15q-10 11-32 38t-39 55q-17 29-31 70-13 40-13 78 0 126 73 197 72 71 200 71 36 0 72-12 37-13 69-34 32-20 55-39 22-18 43-39 21 21 43 39 23 19 55 39 32 21 69 34 36 12 72 12 128 0 200-71 73-71 73-197t-131-257l-356-343q-10-10-25-10v0z" />
<glyph unicode="&#xf005;" glyph-name="uniF005" horiz-adv-x="951" d="M951 507q0-12-15-27l-207-202 49-286v-12q0-12-6-20t-17-8-23 7l-257 135-256-135q-13-7-23-7-12 0-18 8t-6 20q0 4 1 12l49 286-208 202q-14 15-14 27 0 21 32 27l287 41 128 260q11 24 28 24 18 0 28-24l129-260 287-41q32-6 32-27v0z" />
<glyph unicode="&#xf006;" glyph-name="uniF006" horiz-adv-x="951" d="M650 303l175 170-242 35-108 219-108-219-241-35 175-170-42-240 216 113 216-113zM951 507q0-12-15-27l-207-202 49-286v-12q0-28-23-28-11 0-23 7l-257 135-256-135q-13-7-23-7-12 0-18 8t-6 20q0 4 1 12l49 286-208 202q-14 15-14 27 0 21 32 27l287 41 128 260q11 24 28 24 18 0 28-24l129-260 287-41q32-6 32-27v0z" />
<glyph unicode="&#xf007;" glyph-name="uniF007" horiz-adv-x="805" d="M805 74q0-68-42-108t-111-40h-499q-70 0-111 40-42 40-42 108 0 30 2 59t8 63q6 33 15 62 9 28 25 55 15 27 35 47 20 19 49 30 29 12 64 12 5 0 24-13 19-12 42-27 24-15 62-28 38-12 76-12 39 0 77 12 38 13 61 28 24 15 43 27 19 13 24 13 35 0 64-12 28-11 48-30 20-20 36-47 15-27 24-55 10-29 16-62 6-34 8-63t2-59v0zM622 584q0-90-65-155-64-64-155-64t-155 64q-64 65-64 155 0 91 64 156 64 64 155 64t155-64q65-65 65-156v0z" />
<glyph unicode="&#xf008;" glyph-name="uniF008" horiz-adv-x="1097" d="M219-37v73q0 15-10 26-11 10-26 10h-73q-15 0-26-10-11-11-11-26v-73q0-15 11-26t26-11h73q15 0 26 11 10 11 10 26zM219 182v73q0 15-10 26-11 11-26 11h-73q-15 0-26-11t-11-26v-73q0-15 11-26 11-10 26-10h73q15 0 26 10 10 11 10 26zM219 402v73q0 15-10 25-11 11-26 11h-73q-15 0-26-11-11-10-11-25v-73q0-15 11-26t26-11h73q15 0 26 11 10 11 10 26v0zM805-37v292q0 15-11 26t-26 11h-439q-15 0-26-11-10-11-10-26v-292q0-15 10-26 11-11 26-11h439q15 0 26 11t11 26v0zM219 621v73q0 15-10 26-11 11-26 11h-73q-15 0-26-11t-11-26v-73q0-15 11-26t26-11h73q15 0 26 11 10 11 10 26zM1024-37v73q0 15-11 26-11 10-26 10h-73q-15 0-25-10-11-11-11-26v-73q0-15 11-26 10-11 25-11h73q15 0 26 11t11 26zM805 402v292q0 15-11 26t-26 11h-439q-15 0-26-11-10-11-10-26v-292q0-15 10-26 11-11 26-11h439q15 0 26 11t11 26v0zM1024 182v73q0 15-11 26t-26 11h-73q-15 0-25-11-11-11-11-26v-73q0-15 11-26 10-10 25-10h73q15 0 26 10 11 11 11 26zM1024 402v73q0 15-11 25-11 11-26 11h-73q-15 0-25-11-11-10-11-25v-73q0-15 11-26 10-11 25-11h73q15 0 26 11t11 26v0zM1024 621v73q0 15-11 26t-26 11h-73q-15 0-25-11-11-11-11-26v-73q0-15 11-26 10-11 25-11h73q15 0 26 11t11 26zM1097 712v-768q0-37-27-64t-64-27h-915q-37 0-64 27t-27 64v768q0 38 27 65t64 27h915q37 0 64-27t27-65z" />
<glyph unicode="&#xf009;" glyph-name="uniF009" horiz-adv-x="951" d="M439 292v-220q0-29-22-51t-51-22h-293q-30 0-51 22-22 22-22 51v220q0 30 22 51 21 22 51 22h293q29 0 51-22 22-21 22-51v0zM439 731v-220q0-29-22-51t-51-22h-293q-30 0-51 22-22 22-22 51v220q0 29 22 51 21 22 51 22h293q29 0 51-22t22-51zM951 292v-220q0-29-22-51t-51-22h-293q-30 0-51 22-22 22-22 51v220q0 30 22 51 21 22 51 22h293q29 0 51-22 22-21 22-51v0zM951 731v-220q0-29-22-51t-51-22h-293q-30 0-51 22-22 22-22 51v220q0 29 22 51 21 22 51 22h293q29 0 51-22t22-51z" />
<glyph unicode="&#xf00a;" glyph-name="uniF00A" d="M293 164v-110q0-23-16-39t-39-16h-183q-23 0-39 16t-16 39v110q0 23 16 39t39 16h183q23 0 39-16t16-39zM293 456v-109q0-23-16-39t-39-16h-183q-23 0-39 16t-16 39v109q0 23 16 39t39 16h183q23 0 39-16t16-39zM658 164v-110q0-23-16-39t-39-16h-182q-23 0-39 16t-16 39v110q0 23 16 39t39 16h182q23 0 39-16t16-39zM293 749v-110q0-23-16-39t-39-16h-183q-23 0-39 16t-16 39v110q0 23 16 39t39 16h183q23 0 39-16t16-39zM658 456v-109q0-23-16-39t-39-16h-182q-23 0-39 16t-16 39v109q0 23 16 39t39 16h182q23 0 39-16t16-39zM1024 164v-110q0-23-16-39t-39-16h-183q-23 0-39 16t-16 39v110q0 23 16 39t39 16h183q23 0 39-16t16-39zM658 749v-110q0-23-16-39t-39-16h-182q-23 0-39 16t-16 39v110q0 23 16 39t39 16h182q23 0 39-16t16-39zM1024 456v-109q0-23-16-39t-39-16h-183q-23 0-39 16t-16 39v109q0 23 16 39t39 16h183q23 0 39-16t16-39zM1024 749v-110q0-23-16-39t-39-16h-183q-23 0-39 16t-16 39v110q0 23 16 39t39 16h183q23 0 39-16t16-39z" />
<glyph unicode="&#xf00b;" glyph-name="uniF00B" d="M293 164v-110q0-23-16-39t-39-16h-183q-23 0-39 16t-16 39v110q0 23 16 39t39 16h183q23 0 39-16t16-39zM293 456v-109q0-23-16-39t-39-16h-183q-23 0-39 16t-16 39v109q0 23 16 39t39 16h183q23 0 39-16t16-39zM1024 164v-110q0-23-16-39t-39-16h-548q-23 0-39 16t-16 39v110q0 23 16 39t39 16h548q23 0 39-16t16-39zM293 749v-110q0-23-16-39t-39-16h-183q-23 0-39 16t-16 39v110q0 23 16 39t39 16h183q23 0 39-16t16-39zM1024 456v-109q0-23-16-39t-39-16h-548q-23 0-39 16t-16 39v109q0 23 16 39t39 16h548q23 0 39-16t16-39zM1024 749v-110q0-23-16-39t-39-16h-548q-23 0-39 16t-16 39v110q0 23 16 39t39 16h548q23 0 39-16t16-39z" />
<glyph unicode="&#xf00c;" glyph-name="uniF00C" d="M955 554q0-23-16-39l-492-492q-16-16-38-16-23 0-39 16l-285 285q-16 16-16 39t16 39l78 77q16 16 39 16t39-16l168-168 374 375q16 16 39 16t39-16l78-78q16-16 16-38v0z" />
<glyph unicode="&#xf00d;" glyph-name="uniF00D" horiz-adv-x="805" d="M742 122q0-23-16-39l-78-78q-16-16-39-16t-39 16l-168 168-168-168q-16-16-39-16-22 0-38 16l-78 78q-16 16-16 39 0 22 16 38l168 168-168 168q-16 16-16 39t16 39l78 78q16 16 38 16 23 0 39-16l168-168 168 168q16 16 39 16t39-16l78-78q16-16 16-39t-16-39l-168-168 168-168q16-16 16-38v0z" />
<glyph unicode="&#xf00e;" glyph-name="uniF00E" horiz-adv-x="951" d="M585 420v-37q0-7-5-13-6-5-13-5h-128v-128q0-7-6-13-5-5-12-5h-37q-7 0-13 5-5 6-5 13v128h-128q-8 0-13 5-6 6-6 13v37q0 7 6 13 5 5 13 5h128v128q0 8 5 13 6 5 13 5h37q7 0 12-5 6-5 6-13v-128h128q7 0 13-5 5-6 5-13v0zM658 402q0 105-75 180-75 76-181 76-105 0-181-76-75-75-75-180 0-106 75-181 76-75 181-75 106 0 181 75t75 181zM951-74q0-30-22-52-21-21-51-21-31 0-52 22l-196 195q-102-71-228-71-81 0-156 32t-129 86-85 128q-32 75-32 157 0 81 32 156 31 74 85 128t129 86 156 32q82 0 157-32 74-32 128-86t86-128q32-75 32-156 0-126-71-228l196-196q21-22 21-52v0z" />
<glyph unicode="&#xf010;" glyph-name="uniF010" horiz-adv-x="951" d="M585 420v-37q0-7-5-13-6-5-13-5h-329q-8 0-13 5-6 6-6 13v37q0 7 6 13 5 5 13 5h329q7 0 13-5 5-6 5-13v0zM658 402q0 105-75 180-75 76-181 76-105 0-181-76-75-75-75-180 0-106 75-181 76-75 181-75 106 0 181 75t75 181zM951-74q0-30-22-52-21-21-51-21-31 0-52 22l-196 195q-102-71-228-71-81 0-156 32t-129 86-85 128q-32 75-32 157 0 81 32 156 31 74 85 128t129 86 156 32q82 0 157-32 74-32 128-86t86-128q32-75 32-156 0-126-71-228l196-196q21-22 21-52v0z" />
<glyph unicode="&#xf011;" glyph-name="uniF011" d="M878 365q0-89-35-170t-94-140-140-94-170-35-170 35q-82 35-140 94-59 59-94 140t-35 170q0 104 46 196t129 154q25 19 55 15t48-29q18-24 14-54-5-30-29-48-56-43-86-104-31-61-31-130 0-59 23-113 24-54 63-94 39-39 93-62 54-24 114-24 59 0 113 24 54 23 94 62 39 40 62 94t23 113q0 69-30 130-31 61-87 104-24 18-28 48t14 54q18 25 48 29t54-15q84-62 130-154t46-196v0zM512 804v-366q0-30-22-51-21-22-51-22t-52 22q-21 21-21 51v366q0 30 21 51 22 22 52 22t51-22q22-21 22-51v0z" />
<glyph unicode="&#xf012;" glyph-name="uniF012" d="M146 54v-110q0-8-5-13t-13-5h-110q-8 0-13 5t-5 13v110q0 8 5 13t13 5h110q8 0 13-5t5-13zM366 127v-183q0-8-5-13-6-5-14-5h-109q-8 0-13 5-6 5-6 13v183q0 8 6 13 5 6 13 6h109q8 0 14-6 5-5 5-13zM585 274v-330q0-8-5-13t-13-5h-110q-8 0-13 5t-5 13v330q0 8 5 13t13 5h110q8 0 13-5t5-13zM805 493v-549q0-8-6-13-5-5-13-5h-109q-8 0-14 5-5 5-5 13v549q0 8 5 13 6 5 14 5h109q8 0 13-5 6-5 6-13v0zM1024 786v-842q0-8-5-13t-13-5h-110q-8 0-13 5t-5 13v842q0 8 5 13t13 5h110q8 0 13-5t5-13v0z" />
<glyph unicode="&#xf013;" glyph-name="uniF013" d="M585 365q0 61-43 103-43 43-103 43-61 0-104-43-42-42-42-103t42-103q43-43 104-43 60 0 103 43 43 42 43 103zM878 427v-127q0-6-5-13-4-6-11-7l-106-16q-11-31-22-52 20-29 61-79 6-7 6-14 0-8-6-13-15-22-56-62-41-41-54-41-7 0-15 5l-79 62q-25-13-52-22-9-77-16-106-4-16-21-16h-127q-8 0-14 5t-6 12l-16 105q-28 10-52 22l-80-62q-6-5-14-5t-15 7q-72 65-94 96-4 5-4 13 0 7 5 13 8 12 29 38 20 26 31 40-16 29-24 57l-104 15q-8 1-12 7-5 6-5 14v127q0 6 5 13 4 6 10 7l107 16q8 26 22 53-23 32-61 79-6 6-6 13 0 6 5 13 15 21 57 62 41 41 54 41 7 0 14-6l79-61q25 13 52 22 9 77 17 106 4 16 20 16h127q8 0 14-5t7-12l16-105q28-10 51-22l81 62q6 5 14 5t14-6q74-68 95-97 4-5 4-13 0-7-5-13-8-12-29-38t-31-40q15-29 24-56l104-16q8-1 12-7 5-6 5-14v0z" />
<glyph unicode="&#xf014;" glyph-name="uniF014" horiz-adv-x="805" d="M293 456v-329q0-8-6-13-5-5-13-5h-36q-8 0-13 5-6 5-6 13v329q0 8 6 14 5 5 13 5h36q8 0 13-5 6-6 6-14v0zM439 456v-329q0-8-5-13t-13-5h-37q-8 0-13 5t-5 13v329q0 8 5 14 5 5 13 5h37q8 0 13-5 5-6 5-14zM585 456v-329q0-8-5-13t-13-5h-37q-8 0-13 5t-5 13v329q0 8 5 14 5 5 13 5h37q8 0 13-5 5-6 5-14zM658 43v541h-512v-541q0-13 4-23 4-11 9-16 4-5 6-5h475q2 0 6 5t8 16q4 10 4 23v0zM274 658h256l-27 66q-4 6-10 7h-181q-6-1-10-7zM805 639v-36q0-8-6-13-5-6-13-6h-55v-541q0-48-26-82-27-35-65-35h-475q-38 0-65 34-27 33-27 80v544h-55q-8 0-13 6-5 5-5 13v36q0 8 5 13 5 6 13 6h177l40 95q8 21 31 36 22 15 45 15h183q23 0 45-15t31-36l40-95h176q8 0 13-6 6-5 6-13v0z" />
<glyph unicode="&#xf015;" glyph-name="uniF015" horiz-adv-x="951" d="M805 310v-274q0-15-11-26t-26-11h-219v220h-147v-220h-219q-15 0-26 11t-11 26v274q0 1 1 2v2l328 270 329-270q1-2 1-4v0zM932 350l-35-43q-5-5-12-6h-2q-8 0-12 4l-396 330-395-330q-7-5-14-4t-12 6l-35 43q-5 5-4 13 0 8 6 12l411 343q18 14 43 14 26 0 44-14l139-117v111q0 8 5 14 6 5 14 5h109q8 0 13-5 6-6 6-14v-233l125-104q5-4 6-12t-4-13v0z" />
<glyph unicode="&#xf016;" glyph-name="uniF016" horiz-adv-x="731" d="M73-1h585v439h-237q-23 0-39 16t-16 39v238h-293v-732zM439 511h171l-171 171v-171zM731 438v-457q0-23-16-39t-38-16h-622q-23 0-39 16t-16 39v768q0 23 16 39t39 16h311q23 0 50-12 27-11 43-27l234-233q16-16 27-44 11-27 11-50v0z" />
<glyph unicode="&#xf017;" glyph-name="uniF017" d="M622 347v-37q0-7-6-13-5-5-13-5h-219q-7 0-13 5-5 6-5 13v256q0 8 5 13 6 5 13 5h37q7 0 12-5 6-5 6-13v-201h164q8 0 13-5 6-6 6-13v0zM731 365q0 59-23 113t-62 94q-40 39-94 62-54 24-113 24-60 0-114-24-54-23-93-62-39-40-63-94-23-54-23-113t23-113q24-54 63-94 39-39 93-62 54-24 114-24 59 0 113 24 54 23 94 62 39 40 62 94t23 113zM878 365q0-119-59-220t-160-160-220-59q-120 0-220 59-101 59-160 160t-59 220 59 220 160 160q100 59 220 59 119 0 220-59t160-160 59-220v0z" />
<glyph unicode="&#xf018;" glyph-name="uniF018" horiz-adv-x="1097" d="M635 308v2l-14 183q0 7-6 13-6 5-13 5h-107q-7 0-13-5-5-6-6-13l-14-183v-2q0-7 5-12 5-4 12-4h139q7 0 12 4 5 5 5 12v0zM1069 41q0-42-27-42h-402q7 0 13 6 5 5 4 13l-11 146q-1 7-7 13-5 5-13 5h-155q-8 0-13-5-6-6-7-13l-11-146q-1-8 5-13 5-6 12-6h-402q-26 0-26 42 0 31 14 66l239 597q4 11 15 19 10 8 21 8h194q-7 0-13-6-6-5-6-13l-9-109q-1-8 5-13 5-6 12-6h95q7 0 13 6 5 5 4 13l-8 109q-1 8-7 13-5 6-13 6h194q11 0 22-8 10-8 14-19l239-597q15-35 15-66v0z" />
<glyph unicode="&#xf019;" glyph-name="uniF019" horiz-adv-x="951" d="M765 416q10-24-8-40l-256-256q-10-11-26-11-15 0-25 11l-256 256q-18 16-8 40 9 22 33 22h147v256q0 15 11 26 10 11 25 11h147q14 0 25-11t11-26v-256h146q24 0 34-22v0zM933 292q8 0 13-5t5-13v-330q0-8-5-13t-13-5h-915q-8 0-13 5t-5 13v330q0 8 5 13t13 5h110q8 0 13-5t5-13v-202h659v202q0 8 5 13t13 5h110z" />
<glyph unicode="&#xf01a;" glyph-name="uniF01A" d="M640 347q0-7-6-14l-182-182q-5-5-13-5t-13 5l-183 183q-5 5-5 13 0 7 5 13 6 5 13 5h110v201q0 8 5 13 6 5 13 5h110q7 0 13-5 5-5 5-13v-201h110q8 0 13-5t5-13v0zM731 365q0 59-23 113t-62 94q-40 39-94 62-54 24-113 24-60 0-114-24-54-23-93-62-39-40-63-94-23-54-23-113t23-113q24-54 63-94 39-39 93-62 54-24 114-24 59 0 113 24 54 23 94 62 39 40 62 94t23 113zM878 365q0-119-59-220t-160-160-220-59q-120 0-220 59-101 59-160 160t-59 220 59 220 160 160q100 59 220 59 119 0 220-59t160-160 59-220v0z" />
<glyph unicode="&#xf01b;" glyph-name="uniF01B" d="M640 383q0-7-5-13-6-5-13-5h-110v-201q0-8-5-13-6-5-13-5h-110q-7 0-13 5-5 5-5 13v201h-110q-8 0-13 5t-5 13q0 7 5 14l183 182q5 5 13 5t13-5l183-183q5-5 5-13v0zM731 365q0 59-23 113t-62 94q-40 39-94 62-54 24-113 24-60 0-114-24-54-23-93-62-39-40-63-94-23-54-23-113t23-113q24-54 63-94 39-39 93-62 54-24 114-24 59 0 113 24 54 23 94 62 39 40 62 94t23 113zM878 365q0-119-59-220t-160-160-220-59q-120 0-220 59-101 59-160 160t-59 220 59 220 160 160q100 59 220 59 119 0 220-59t160-160 59-220v0z" />
<glyph unicode="&#xf01c;" glyph-name="uniF01C" d="M585 328h180q0 2-1 5t-2 5l-121 283h-404l-122-283q0-2-1-5t-1-5h180l54-109h183zM878 311v-275q0-15-11-26t-26-11h-804q-15 0-26 11t-11 26v275q0 36 14 71l136 315q6 14 21 24t30 10h476q14 0 30-10 15-10 20-24l136-315q15-35 15-71v0z" />
<glyph unicode="&#xf01d;" glyph-name="uniF01D" d="M658 365q0-21-19-32l-292-165q-8-4-18-4t-18 5q-18 10-18 31v330q0 21 18 31 18 11 36 1l292-165q19-11 19-32v0zM731 365q0 59-23 113t-62 94q-40 39-94 62-54 24-113 24-60 0-114-24-54-23-93-62-39-40-63-94-23-54-23-113t23-113q24-54 63-94 39-39 93-62 54-24 114-24 59 0 113 24 54 23 94 62 39 40 62 94t23 113zM878 365q0-119-59-220t-160-160-220-59q-120 0-220 59-101 59-160 160t-59 220 59 220 160 160q100 59 220 59 119 0 220-59t160-160 59-220v0z" />
<glyph unicode="&#xf01e;" glyph-name="uniF01E" d="M878 731v-256q0-15-11-26t-26-11h-256q-24 0-34 23-9 22 8 39l79 79q-84 79-199 79-60 0-114-24-54-23-93-62-39-40-63-94-23-54-23-113t23-113q24-54 63-94 39-39 93-62 54-24 114-24 96 0 174 57 77 57 105 150 4 13 17 13h114q9 0 14-7 6-7 4-15-22-100-84-179-62-78-152-121-90-44-192-44-89 0-170 35-82 35-140 94-59 59-94 140t-35 170 35 170 94 140q58 59 140 94 81 35 170 35 84 0 162-32 79-32 140-89l74 73q17 18 40 8 23-9 23-33v0z" />
<glyph unicode="&#xf021;" glyph-name="uniF021" d="M863 274v-4q-37-154-153-249-117-95-273-95-84 0-162 32-78 31-139 89l-74-73q-11-11-25-11-15 0-26 11-11 10-11 25v256q0 15 11 26t26 11h256q14 0 25-11t11-26-11-25l-78-79q41-37 92-58t107-21q76 0 143 38 66 37 106 102 6 10 30 67 5 13 17 13h110q8 0 13-6 5-5 5-12zM878 731v-256q0-15-11-26t-26-11h-256q-15 0-26 11-10 11-10 26t10 25l79 79q-84 79-199 79-77 0-143-38-66-37-106-102-7-10-31-67-4-13-17-13h-113q-8 0-13 6-6 5-6 12v4q37 154 155 249 117 95 274 95 83 0 162-32t140-89l74 73q11 11 26 11t26-11q11-10 11-25v0z" />
<glyph unicode="&#xf022;" glyph-name="uniF022" d="M219 200v-36q0-8-5-13t-13-5h-36q-8 0-13 5-6 5-6 13v36q0 8 6 13 5 6 13 6h36q8 0 13-6 5-5 5-13zM219 347v-37q0-7-5-13-5-5-13-5h-36q-8 0-13 5-6 6-6 13v37q0 7 6 13 5 5 13 5h36q8 0 13-5 5-6 5-13zM219 493v-37q0-7-5-12-5-6-13-6h-36q-8 0-13 6-6 5-6 12v37q0 7 6 13 5 5 13 5h36q8 0 13-5 5-6 5-13zM878 200v-36q0-8-6-13-5-5-13-5h-548q-8 0-13 5t-5 13v36q0 8 5 13 5 6 13 6h548q8 0 13-6 6-5 6-13zM878 347v-37q0-7-6-13-5-5-13-5h-548q-8 0-13 5-5 6-5 13v37q0 7 5 13 5 5 13 5h548q8 0 13-5 6-6 6-13zM878 493v-37q0-7-6-12-5-6-13-6h-548q-8 0-13 6-5 5-5 12v37q0 7 5 13 5 5 13 5h548q8 0 13-5 6-6 6-13zM951 91v475q0 8-6 13-5 5-12 5h-842q-7 0-12-5-6-5-6-13v-475q0-8 6-13 5-6 12-6h842q7 0 12 6 6 5 6 13zM1024 712v-621q0-38-27-65t-64-27h-842q-37 0-64 27t-27 65v621q0 38 27 65t64 27h842q37 0 64-27t27-65z" />
<glyph unicode="&#xf023;" glyph-name="uniF023" horiz-adv-x="658" d="M402 292q0 30-21 52-22 21-52 21t-52-21q-21-22-21-52 0-21 11-38 11-18 29-27l-39-131q-3-9 2-16 6-8 15-8h110q9 0 15 8 6 7 3 16l-40 131q19 9 29 27 11 17 11 38v0zM183 438h292v110q0 60-42 103-43 43-104 43-60 0-103-43t-43-103v-110zM658 383v-329q0-23-16-39t-39-16h-548q-23 0-39 16t-16 39v329q0 23 16 39t39 16h18v110q0 105 76 180 75 76 180 76t181-76q75-75 75-180v-110h18q23 0 39-16t16-39v0z" />
<glyph unicode="&#xf024;" glyph-name="uniF024" d="M183 731q0-41-37-63v-724q0-7-5-12-6-6-13-6h-37q-7 0-12 6-6 5-6 12v724q-36 22-36 63 0 30 21 51 21 22 52 22 30 0 51-22 22-21 22-51v0zM1024 694v-436q0-14-7-22t-23-16q-123-66-211-66-34 0-70 13-36 12-62 27t-66 28q-40 12-82 12-109 0-265-83-9-5-19-5-14 0-25 10-11 11-11 26v424q0 18 18 32 12 8 45 24 135 69 240 69 61 0 115-17 53-16 125-50 21-11 50-11 31 0 67 12t63 27 50 27q24 12 31 12 15 0 26-11t11-26v0z" />
<glyph unicode="&#xf025;" glyph-name="uniF025" horiz-adv-x="951" d="M951 371q0-95-34-180l-12-28-106-19q-12-47-51-78-39-30-90-30v-18q0-8-5-14-5-5-13-5h-37q-8 0-13 5-5 6-5 14v329q0 8 5 13t13 5h37q8 0 13-5t5-13v-19q41 0 75-20 33-20 53-54l39 6q16 55 16 111 0 84-50 159t-135 120q-85 44-181 44-95 0-180-44-85-45-135-120t-50-159q0-56 16-111l39-6q20 34 53 54 34 20 75 20v19q0 8 5 13t13 5h36q8 0 14-5 5-5 5-13v-329q0-8-5-14-6-5-14-5h-36q-8 0-13 5-5 6-5 14v18q-51 0-90 30-39 31-52 78l-105 19-12 28q-34 85-34 180 0 86 38 166 39 80 103 139 64 58 152 93t182 35q95 0 183-35t152-93q64-59 103-139 38-80 38-166v0z" />
<glyph unicode="&#xf026;" glyph-name="uniF026" horiz-adv-x="439" d="M439 676v-622q0-15-11-26-11-10-26-10t-25 10l-191 191h-149q-15 0-26 11-11 10-11 25v220q0 15 11 25 11 11 26 11h149l191 191q10 10 25 10t26-10q11-11 11-26v0z" />
<glyph unicode="&#xf027;" glyph-name="uniF027" horiz-adv-x="658" d="M439 676v-622q0-15-11-26-11-10-26-10t-25 10l-191 191h-149q-15 0-26 11-11 10-11 25v220q0 15 11 25 11 11 26 11h149l191 191q10 10 25 10t26-10q11-11 11-26v0zM658 365q0-43-24-81-24-37-64-53-6-3-15-3-14 0-25 10-11 11-11 26 0 12 7 21 7 8 16 14 10 6 20 13 9 7 16 20 7 14 7 33t-7 33q-7 13-16 20-10 7-20 13-9 6-16 14-7 9-7 21 0 15 11 26 11 10 25 10 9 0 15-3 40-15 64-53t24-81v0z" />
<glyph unicode="&#xf028;" glyph-name="uniF028" horiz-adv-x="951" d="M439 676v-622q0-15-11-26-11-10-26-10t-25 10l-191 191h-149q-15 0-26 11-11 10-11 25v220q0 15 11 25 11 11 26 11h149l191 191q10 10 25 10t26-10q11-11 11-26v0zM658 365q0-43-24-81-24-37-64-53-6-3-15-3-14 0-25 10-11 11-11 26 0 12 7 21 7 8 16 14 10 6 20 13 9 7 16 20 7 14 7 33t-7 33q-7 13-16 20-10 7-20 13-9 6-16 14-7 9-7 21 0 15 11 26 11 10 25 10 9 0 15-3 40-15 64-53t24-81v0zM805 365q0-87-49-161t-129-108q-7-3-14-3-15 0-26 11t-11 26q0 22 22 33 32 17 44 25 42 31 66 78 23 46 23 99t-23 99q-24 47-66 78-12 8-44 25-22 11-22 33 0 15 11 26t26 11q7 0 14-3 80-34 129-108t49-161v0zM951 365q0-131-73-241-72-110-193-162-7-3-15-3-15 0-25 11-11 10-11 25 0 21 22 34 4 2 13 6t13 6q26 14 47 29 70 52 109 130 40 78 40 165t-40 165q-39 78-109 130-21 15-47 29-4 2-13 6t-13 6q-22 13-22 34 0 15 11 25 10 11 25 11 8 0 15-3 121-52 193-162 73-110 73-241v0z" />
<glyph unicode="&#xf029;" glyph-name="uniF029" horiz-adv-x="805" d="M219 219v-73h-73v73h73zM219 658v-74h-73v74h73zM658 658v-74h-73v74h73zM73 73h220v219h-220v-219zM73 511h220v220h-220v-220zM512 511h219v220h-219v-220zM366 365v-366h-366v366h366zM658 72v-73h-73v73h73zM805 72v-73h-74v73h74zM805 365v-219h-220v73h-73v-220h-73v366h219v-73h73v73h74zM366 804v-366h-366v366h366zM805 804v-366h-366v366h366z" />
<glyph unicode="&#xf02a;" glyph-name="uniF02A" d="M384 804v-878h-37v878h37zM805 804v-878h-37v878h37zM896 804v-878h-37v878h37zM329 804v-878h-36v878h36zM731 804v-878h-146v878h146zM512 804v-878h-73v878h73zM256 804v-878h-73v878h73zM1024 804v-878h-73v878h73zM146 804v-878h-146v878h146z" />
<glyph unicode="&#xf02b;" glyph-name="uniF02B" d="M256 621q0 30-21 52-22 21-52 21t-52-21q-21-22-21-52t21-52q22-21 52-21t52 21q21 22 21 52zM866 292q0-30-21-52l-281-281q-22-21-52-21t-51 21l-409 409q-22 22-37 58-15 37-15 67v238q0 29 22 51 21 22 51 22h238q30 0 67-15 36-15 58-37l409-408q21-22 21-52v0z" />
<glyph unicode="&#xf02c;" glyph-name="uniF02C" horiz-adv-x="1097" d="M256 621q0 30-21 52-22 21-52 21t-52-21q-21-22-21-52t21-52q22-21 52-21t52 21q21 22 21 52zM866 292q0-30-21-52l-281-281q-22-21-52-21t-51 21l-409 409q-22 22-37 58-15 37-15 67v238q0 29 22 51 21 22 51 22h238q30 0 67-15 36-15 58-37l409-408q21-22 21-52v0zM1085 292q0-30-21-52l-281-281q-22-21-52-21-20 0-33 8t-31 26l269 268q21 22 21 52t-21 52l-409 408q-21 22-58 37-36 15-67 15h128q31 0 67-15 37-15 58-37l409-408q21-22 21-52v0z" />
<glyph unicode="&#xf02d;" glyph-name="uniF02D" horiz-adv-x="951" d="M937 604q22-33 10-74l-157-518q-11-36-44-61t-70-25h-527q-44 0-85 31-41 30-57 75-14 38-1 72 0 3 1 16 2 13 3 21 0 5-2 12-2 8-2 11 1 7 5 12 3 6 9 14t10 13q13 22 25 53 13 30 18 52 1 6 0 17-2 11 0 16 1 6 9 16t10 13q12 21 24 53t14 51q1 5-1 18-2 14 0 16 2 8 13 18 10 10 12 13 11 15 25 48 13 33 15 55 1 5-1 15-3 10-2 15 2 4 6 10t10 13q6 8 10 12 4 7 9 18 5 10 9 20 3 9 9 20 5 11 11 19 6 7 15 13t21 7q11 0 27-4l-1-1q22 5 29 5h435q42 0 65-32t11-74l-157-518q-21-68-41-88t-73-20h-497q-15 0-22-8-6-9 0-25 14-40 82-40h528q16 0 32 9 15 9 20 24l171 564q4 12 3 32 22-8 34-24v0zM329 603q-3-8 1-13 3-6 11-6h348q7 0 14 6 7 5 10 13l12 36q2 8-2 13-3 6-11 6h-347q-8 0-15-6-7-5-9-13zM281 456q-2-7 1-12 4-6 12-6h347q8 0 15 6 7 5 9 12l12 37q2 7-1 13-3 5-11 5h-348q-7 0-14-5-8-6-10-13z" />
<glyph unicode="&#xf02e;" glyph-name="uniF02E" horiz-adv-x="731" d="M665 804q13 0 25-5 19-8 30-24t11-35v-737q0-19-11-35t-30-24q-11-4-25-4-27 0-47 18l-252 242-252-242q-21-19-48-19-13 0-25 5-19 8-30 24t-11 35v737q0 19 11 35t30 24q12 5 25 5h599z" />
<glyph unicode="&#xf02f;" glyph-name="uniF02F" horiz-adv-x="951" d="M219-1h512v147h-512v-147zM219 365h512v219h-91q-23 0-39 16t-16 39v92h-366v-366zM878 328q0 15-11 26t-26 11-26-11q-10-11-10-26 0-14 10-25 11-11 26-11t26 11 11 25v0zM951 328v-237q0-8-6-13-5-6-12-6h-128v-91q0-23-16-39t-39-16h-549q-23 0-39 16t-16 39v91h-128q-7 0-13 6-5 5-5 13v237q0 46 32 78 33 32 78 32h36v311q0 23 16 39t39 16h384q23 0 50-12 28-11 44-27l87-87q16-16 27-43 12-28 12-51v-146h36q45 0 78-32 32-32 32-78v0z" />
<glyph unicode="&#xf030;" glyph-name="uniF030" horiz-adv-x="1097" d="M549 493q68 0 116-48 48-49 48-117t-48-116-116-48-117 48q-48 48-48 116t48 117q49 48 117 48v0zM951 731q60 0 103-43t43-104v-512q0-60-43-103t-103-43h-805q-60 0-103 43t-43 103v512q0 61 43 104t103 43h128l29 77q11 28 40 49 29 20 59 20h293q30 0 59-20 29-21 40-49l29-77h128zM549 72q105 0 180 76 76 75 76 180 0 106-76 181-75 75-180 75-106 0-181-75t-75-181q0-105 75-180 75-76 181-76z" />
<glyph unicode="&#xf031;" glyph-name="uniF031" horiz-adv-x="951" d="M414 558l-97-258q42 0 88-1 46 0 68-1h30l16 1q-18 55-52 138-30 75-53 121v0zM12-74h-12l1 45q13 4 46 11 51 9 63 17 11 9 27 39l296 766h73l6-12 117-274q59-139 71-170 22-58 55-134 15-34 37-94 14-38 37-85 13-28 20-33 13-11 40-13 26-3 58-15 4-23 4-33 0-8-1-15-45 0-109 5-54 4-108 4-46 0-78-1l-114-6-33-1q0 25 2 44l75 16q32 8 39 13 7 7 7 16 0 8-4 18l-26 65-53 131-257 1q-17-37-60-157-13-36-13-48 0-18 10-24 15-12 59-19 2 0 8-1t17-3q11-1 23-3v-33q0-10-1-16-37 0-199 12l-28-5q-46-8-95-8v0z" />
<glyph unicode="&#xf032;" glyph-name="uniF032" horiz-adv-x="805" d="M317 8q44-18 80-18 75 0 124 23 48 23 69 65 22 40 22 103 0 65-23 103-34 54-81 72-46 18-141 18-42 0-58-6v-181l1-154q0-9 7-25v0zM309 434q25-4 62-4 100 0 151 37t51 128q0 64-48 107t-146 43q-30 0-74-7 0-26 1-44 4-70 3-160v-100zM0-74l1 54q26 5 39 7 44 7 70 17 10 16 12 30 5 37 5 110l-1 284q-3 147-5 231 0 50-6 63-1 2-7 6-10 7-39 9-18 1-66 7l-2 48 149 3 217 8h26q2 0 8 1h20q12-1 23-1h42q51 0 109-15 25-8 55-22 33-17 59-44 25-27 37-59 12-33 12-70 0-40-19-73-18-33-54-60-15-12-86-44 102-24 153-84 53-60 53-134 0-44-17-92-12-36-41-67-37-41-80-62-41-21-116-34-46-9-113-7l-112 3q-48 1-171-7-18-1-155-6v0z" />
<glyph unicode="&#xf033;" glyph-name="uniF033" horiz-adv-x="585" d="M0-73l10 49q2 0 44 11 43 11 66 23 17 21 23 57l16 80 32 153 7 36q4 26 9 49 6 23 10 38t7 27q3 11 5 17t2 7l16 89 10 36 12 77 5 29v22q-24 12-83 16-16 1-21 2l11 59 181-8q22-1 41-1 38 0 123 5 19 1 39 2l20 2q-1-11-3-22-4-16-8-29-31-11-62-18-37-9-58-17-7-18-13-51-6-25-8-47-25-113-38-174l-34-178-22-90-25-135-7-25q-1-4 1-16 37-8 68-12 21-3 38-6-1-16-4-33-4-17-5-23-11 0-14-1-13-1-24-1-5 0-16 2-10 2-82 10l-114 1q-23 0-99-7-42-4-56-5v0z" />
<glyph unicode="&#xf034;" glyph-name="uniF034" d="M46 803l31-15q12-3 121-3h74l11 2h356l19-1q8-1 16 4 8 4 12 9l4 4 24 1q9 0 16-1v-59l1-76v-90q0-18-2-29-23-9-39-10-15 24-31 73-5 14-9 36t-7 37q-2 15-3 17-7 8-15 10-4 2-25 2-20 0-59-1t-63-1q-20 0-39-2-5-56-4-78v-277l2-205v-84q-1-26 6-48 28-15 51-19 1 0 10-3 9-2 25-7t25-7q17-4 28-10 3-26 3-29 0-5-2-16-8-1-19-1-63 0-107 6-41 4-136 4-50 0-133-8-27-2-40-2-1 13-1 15l-1 15v5q12 19 45 28 80 22 91 29 5 12 7 32 5 109 4 247l-3 245q-1 35-1 67 1 33 1 59t-1 32q-2 7-4 9-3 3-8 3-22 4-84 4-25 0-58-8-32-8-41-14-8-5-13-19-5-13-12-43-8-29-14-48-4-10-11-18-8-7-12-7-25 15-32 25v219h46zM997 72q18 0 24-10 5-11-7-26l-72-92q-11-15-28-15-16 0-28 15l-72 92q-11 15-6 26 5 10 24 10h46v586h-46q-19 0-24 10-5 11 6 26l72 92q12 15 28 15 17 0 28-15l72-92q12-15 7-26-6-10-24-10h-46v-586h46z" />
<glyph unicode="&#xf035;" glyph-name="uniF035" d="M46 803l31-15q12-3 121-3h74l11 2h502l20-1q8-1 16 4 8 4 12 9l4 4 24 1q8 0 16-1v-135l1-57-1-33q0-18-2-29-22-9-39-10-14 24-31 73-4 14-9 36-4 22-6 37-3 15-4 17-7 8-15 10-4 2-34 2-29 0-79-1-49-1-73-1-54 0-72-2-6-56-5-78l1-87v30l1-205v-84q-1-27 6-49 28-14 51-18 1 0 10-3t25-8q16-4 25-6 17-5 28-11 3-25 3-28 0-6-1-17h-20q-63 0-107 5-41 5-136 5-47 0-133-8-26-2-40-2-1 12-1 14l-1 15v5q12 19 46 28 79 22 90 29 6 12 7 32 4 78 4 247l-3 26q0 151-1 158t-4 9q-3 3-8 3-21 4-84 4-29 0-97-8-67-8-75-14-8-5-13-19-5-13-12-43-8-29-14-48-4-10-11-18-8-7-12-7-25 15-32 25v219h46zM860 64q15-12 15-28 0-17-15-28l-93-72q-14-12-25-6-11 5-11 24v45h-585v-45q0-19-10-24-11-6-26 6l-92 72q-15 11-15 28 0 16 15 28l92 72q15 11 26 6 10-5 10-24v-46h585v46q0 19 11 24t25-6z" />
<glyph unicode="&#xf036;" glyph-name="uniF036" d="M1024 109v-73q0-15-11-26t-26-11h-950q-15 0-26 11t-11 26v73q0 15 11 26t26 11h950q15 0 26-11t11-26zM805 328v-73q0-15-11-25-11-11-26-11h-731q-15 0-26 11-11 10-11 25v73q0 15 11 26t26 11h731q15 0 26-11t11-26v0zM951 548v-73q0-15-11-26t-26-11h-877q-15 0-26 11t-11 26v73q0 15 11 26 11 10 26 10h877q15 0 26-10 11-11 11-26zM731 767v-73q0-15-10-26-11-10-26-10h-658q-15 0-26 10-11 11-11 26v73q0 15 11 26t26 11h658q15 0 26-11 10-11 10-26v0z" />
<glyph unicode="&#xf037;" glyph-name="uniF037" d="M1024 109v-73q0-15-11-26t-26-11h-950q-15 0-26 11t-11 26v73q0 15 11 26t26 11h950q15 0 26-11t11-26zM805 328v-73q0-15-11-25-11-11-26-11h-512q-15 0-26 11-11 10-11 25v73q0 15 11 26t26 11h512q15 0 26-11t11-26v0zM951 548v-73q0-15-11-26t-26-11h-804q-15 0-26 11t-11 26v73q0 15 11 26 11 10 26 10h804q15 0 26-10 11-11 11-26zM731 767v-73q0-15-10-26-11-10-26-10h-366q-15 0-26 10-10 11-10 26v73q0 15 10 26 11 11 26 11h366q15 0 26-11 10-11 10-26v0z" />
<glyph unicode="&#xf038;" glyph-name="uniF038" d="M1024 109v-73q0-15-11-26t-26-11h-950q-15 0-26 11t-11 26v73q0 15 11 26t26 11h950q15 0 26-11t11-26zM1024 328v-73q0-15-11-25-11-11-26-11h-731q-15 0-26 11-11 10-11 25v73q0 15 11 26t26 11h731q15 0 26-11t11-26v0zM1024 548v-73q0-15-11-26t-26-11h-877q-15 0-26 11t-11 26v73q0 15 11 26 11 10 26 10h877q15 0 26-10 11-11 11-26zM1024 767v-73q0-15-11-26-11-10-26-10h-658q-15 0-26 10-10 11-10 26v73q0 15 10 26 11 11 26 11h658q15 0 26-11t11-26z" />
<glyph unicode="&#xf039;" glyph-name="uniF039" d="M1024 109v-73q0-15-11-26t-26-11h-950q-15 0-26 11t-11 26v73q0 15 11 26t26 11h950q15 0 26-11t11-26zM1024 328v-73q0-15-11-25-11-11-26-11h-950q-15 0-26 11-11 10-11 25v73q0 15 11 26t26 11h950q15 0 26-11t11-26v0zM1024 548v-73q0-15-11-26t-26-11h-950q-15 0-26 11t-11 26v73q0 15 11 26 11 10 26 10h950q15 0 26-10 11-11 11-26zM1024 767v-73q0-15-11-26-11-10-26-10h-950q-15 0-26 10-11 11-11 26v73q0 15 11 26t26 11h950q15 0 26-11t11-26z" />
<glyph unicode="&#xf03a;" glyph-name="uniF03A" d="M146 127v-109q0-8-5-13-6-6-13-6h-110q-7 0-13 6-5 5-5 13v109q0 8 5 13 6 6 13 6h110q7 0 13-6 5-5 5-13v0zM146 347v-110q0-7-5-13-6-5-13-5h-110q-7 0-13 5-5 6-5 13v110q0 7 5 13 6 5 13 5h110q7 0 13-5 5-6 5-13v0zM146 566v-110q0-7-5-12-6-6-13-6h-110q-7 0-13 6-5 5-5 12v110q0 8 5 13 6 5 13 5h110q7 0 13-5 5-5 5-13zM1024 127v-109q0-8-5-13-6-6-13-6h-768q-8 0-13 6-6 5-6 13v109q0 8 6 13 5 6 13 6h768q7 0 13-6 5-5 5-13v0zM146 786v-110q0-8-5-13-6-5-13-5h-110q-7 0-13 5-5 5-5 13v110q0 7 5 12 6 6 13 6h110q7 0 13-6 5-5 5-12zM1024 347v-110q0-7-5-13-6-5-13-5h-768q-8 0-13 5-6 6-6 13v110q0 7 6 13 5 5 13 5h768q7 0 13-5 5-6 5-13v0zM1024 566v-110q0-7-5-12-6-6-13-6h-768q-8 0-13 6-6 5-6 12v110q0 8 6 13 5 5 13 5h768q7 0 13-5 5-5 5-13zM1024 786v-110q0-8-5-13-6-5-13-5h-768q-8 0-13 5-6 5-6 13v110q0 7 6 12 5 6 13 6h768q7 0 13-6 5-5 5-12z" />
<glyph unicode="&#xf03b;" glyph-name="uniF03B" d="M219 566v-329q0-7-5-13-5-5-13-5t-13 5l-165 164q-5 6-5 14t5 13l165 164q5 5 13 5t13-5 5-13v0zM1024 127v-109q0-8-5-13-6-6-13-6h-988q-7 0-13 6-5 5-5 13v109q0 8 5 13 6 6 13 6h988q7 0 13-6 5-5 5-13v0zM1024 347v-110q0-7-5-13-6-5-13-5h-622q-7 0-13 5-5 6-5 13v110q0 7 5 13 6 5 13 5h622q7 0 13-5 5-6 5-13v0zM1024 566v-110q0-7-5-12-6-6-13-6h-622q-7 0-13 6-5 5-5 12v110q0 8 5 13 6 5 13 5h622q7 0 13-5 5-5 5-13zM1024 786v-110q0-8-5-13-6-5-13-5h-988q-7 0-13 5-5 5-5 13v110q0 7 5 12 6 6 13 6h988q7 0 13-6 5-5 5-12z" />
<glyph unicode="&#xf03c;" glyph-name="uniF03C" d="M201 402q0-8-5-14l-165-164q-5-5-13-5-7 0-13 5-5 6-5 13v329q0 8 5 13 6 5 13 5 8 0 13-5l165-164q5-5 5-13v0zM1024 127v-109q0-8-5-13-6-6-13-6h-988q-7 0-13 6-5 5-5 13v109q0 8 5 13 6 6 13 6h988q7 0 13-6 5-5 5-13v0zM1024 347v-110q0-7-5-13-6-5-13-5h-622q-7 0-13 5-5 6-5 13v110q0 7 5 13 6 5 13 5h622q7 0 13-5 5-6 5-13v0zM1024 566v-110q0-7-5-12-6-6-13-6h-622q-7 0-13 6-5 5-5 12v110q0 8 5 13 6 5 13 5h622q7 0 13-5 5-5 5-13zM1024 786v-110q0-8-5-13-6-5-13-5h-988q-7 0-13 5-5 5-5 13v110q0 7 5 12 6 6 13 6h988q7 0 13-6 5-5 5-12z" />
<glyph unicode="&#xf03d;" glyph-name="uniF03D" horiz-adv-x="1097" d="M1086 730q11-5 11-18v-694q0-13-11-18-5-1-7-1-7 0-13 5l-335 335v-175q0-68-48-116-48-49-116-49h-402q-68 0-117 49-48 48-48 116v402q0 68 48 116 49 49 117 49h402q68 0 116-49 48-48 48-116v-175l335 335q9 8 20 4v0z" />
<glyph unicode="&#xf03e;" glyph-name="uniF03E" horiz-adv-x="1097" d="M366 548q0-46-32-78t-78-32-78 32-32 78 32 78 78 32 78-32 32-78zM951 328v-256h-805v110l183 183 92-91 292 292zM1006 731h-915q-7 0-12-6-6-5-6-13v-694q0-8 6-13 5-6 12-6h915q7 0 13 6 5 5 5 13v694q0 8-5 13-6 6-13 6zM1097 712v-694q0-38-27-65t-64-27h-915q-37 0-64 27t-27 65v694q0 38 27 65t64 27h915q37 0 64-27t27-65z" />
<glyph unicode="&#xf040;" glyph-name="uniF040" d="M207-1l52 52-134 135-52-52v-62h73v-73h61zM506 530q0 12-12 12-6 0-10-4l-310-310q-4-4-4-9 0-13 13-13 6 0 10 4l309 310q4 4 4 10v0zM475 639l238-237-475-476h-238v238zM866 584q0-30-21-51l-95-95-238 238 95 94q20 22 51 22t52-22l135-134q21-22 21-52v0z" />
<glyph unicode="&#xf041;" glyph-name="uniF041" horiz-adv-x="585" d="M439 511q0 61-43 104t-103 43q-61 0-104-43t-43-104q0-60 43-103t104-43q60 0 103 43t43 103v0zM585 511q0-62-19-102l-208-442q-9-19-27-30t-38-11q-21 0-39 11t-27 30l-208 442q-19 40-19 102 0 121 86 207 85 86 207 86 121 0 206-86 86-86 86-207v0z" />
<glyph unicode="&#xf042;" glyph-name="uniF042" d="M439 804q119 0 220-59t160-160 59-220-59-220-160-160-220-59q-120 0-220 59-101 59-160 160t-59 220 59 220 160 160q100 59 220 59zM146 365q0-59 23-113 24-54 63-94 39-39 93-62 54-24 114-24v586q-60 0-114-24-54-23-93-62-39-40-63-94-23-54-23-113v0z" />
<glyph unicode="&#xf043;" glyph-name="uniF043" horiz-adv-x="585" d="M293 219q0 20-12 39 0 1-9 13-8 12-14 22-7 9-15 25t-12 29q-2 9-12 9-9 0-12-9-4-13-12-29t-14-25q-6-10-14-22-9-12-9-13-12-19-12-39 0-31 22-52 21-21 51-21 31 0 52 21 22 21 22 52v0zM585 292q0-121-86-207-85-86-206-86-122 0-207 86-86 86-86 207 0 83 46 157 4 5 36 52 32 46 58 86 25 40 57 102 31 62 47 115 5 17 19 27 15 9 30 9 14 0 29-9 15-10 19-27 16-53 48-115 31-62 56-102 26-40 58-86 32-47 36-52 46-73 46-157v0z" />
<glyph unicode="&#xf044;" glyph-name="uniF044" d="M507 200l67 67-87 87-66-67v-32h54v-55h32zM759 612q-9 9-19-1l-200-200q-10-9-1-19 10-9 19 1l200 200q10 10 1 19v0zM805 272v-108q0-68-49-116-48-49-116-49h-475q-68 0-117 49-48 48-48 116v475q0 68 48 117 49 48 117 48h475q36 0 67-14 8-4 10-14 2-9-5-16l-28-28q-8-8-18-5-13 4-26 4h-475q-38 0-65-27t-27-65v-475q0-38 27-65t65-27h475q38 0 65 27 26 27 26 65v72q0 7 6 12l36 37q9 9 20 4 12-5 12-17v0zM750 694l164-164-384-384h-164v164zM1003 619l-52-53-165 165 53 52q16 16 39 16t39-16l86-87q16-16 16-38 0-23-16-39v0z" />
<glyph unicode="&#xf045;" glyph-name="uniF045" horiz-adv-x="951" d="M805 312v-148q0-68-49-116-48-49-116-49h-475q-68 0-117 49-48 48-48 116v475q0 68 48 117 49 48 117 48h145q8 0 13-6 6-5 6-12 0-16-15-19-44-15-76-34-6-2-9-2h-64q-38 0-65-27t-27-65v-475q0-38 27-65t65-27h475q38 0 65 27 26 27 26 65v122q0 11 11 17 16 7 31 21 9 9 20 4 12-5 12-16v0zM940 595l-219-219q-11-11-26-11-7 0-14 3-23 10-23 34v109h-91q-185 0-250-75-68-78-43-270 2-13-11-19-5-1-7-1-9 0-15 7-6 8-12 18-6 9-22 39-17 29-29 57-12 27-22 65t-10 70q0 28 2 52t8 51 16 50 27 47 39 42q23 19 54 35 32 17 71 28 40 11 92 17 51 7 112 7h91v109q0 24 23 34 7 3 14 3 15 0 26-11l219-219q11-11 11-26t-11-26v0z" />
<glyph unicode="&#xf046;" glyph-name="uniF046" horiz-adv-x="951" d="M805 346v-182q0-68-49-116-48-49-116-49h-475q-68 0-117 49-48 48-48 116v475q0 68 48 117 49 48 117 48h475q36 0 67-14 8-4 10-14 2-9-5-16l-28-28q-6-6-13-6-2 0-5 1-13 4-26 4h-475q-38 0-65-27t-27-65v-475q0-38 27-65t65-27h475q38 0 65 27 26 27 26 65v145q0 7 6 13l36 36q6 6 13 6 4 0 7-2 12-4 12-16v0zM937 625l-466-465q-13-14-32-14t-33 14l-245 246q-14 13-14 32t14 33l62 63q14 13 33 13t33-13l150-151 370 370q13 14 32 14t33-14l63-63q13-14 13-32 0-19-13-33v0z" />
<glyph unicode="&#xf047;" glyph-name="uniF047" d="M1024 365q0-15-11-26l-146-146q-11-11-26-11t-26 11q-10 11-10 26v73h-220v-220h73q15 0 26-10 11-11 11-26t-11-26l-146-146q-11-11-26-11t-26 11l-146 146q-11 11-11 26t11 26q11 10 26 10h73v220h-220v-73q0-15-10-26-11-11-26-11t-26 11l-146 146q-11 11-11 26t11 26l146 146q11 11 26 11t26-11q10-11 10-26v-73h220v220h-73q-15 0-26 10-11 11-11 26t11 26l146 146q11 11 26 11t26-11l146-146q11-11 11-26t-11-26q-11-10-26-10h-73v-220h220v73q0 15 10 26 11 11 26 11t26-11l146-146q11-11 11-26v0z" />
<glyph unicode="&#xf048;" glyph-name="uniF048" horiz-adv-x="585" d="M559 796q11 11 19 8 7-4 7-18v-842q0-14-7-18-8-3-19 8l-405 405q-5 5-8 11v-387q0-15-11-26-10-11-25-11h-73q-15 0-26 11t-11 26v804q0 15 11 26t26 11h73q15 0 25-11 11-11 11-26v-387q3 6 8 11z" />
<glyph unicode="&#xf049;" glyph-name="uniF049" d="M998 796q11 11 19 8 7-4 7-18v-842q0-14-7-18-8-3-19 8l-405 405q-6 5-8 11v-406q0-14-7-18-8-3-19 8l-405 405q-5 5-8 11v-387q0-15-11-26-10-11-25-11h-73q-15 0-26 11t-11 26v804q0 15 11 26t26 11h73q15 0 25-11 11-11 11-26v-387q3 6 8 11l405 405q11 11 19 8 7-4 7-18v-406q2 6 8 11z" />
<glyph unicode="&#xf04a;" glyph-name="uniF04A" horiz-adv-x="951" d="M925 796q11 11 18 8 8-4 8-18v-842q0-14-8-18-7-3-18 8l-406 405q-4 5-7 11v-406q0-14-7-18-8-3-19 8l-405 405q-11 11-11 26t11 26l405 405q11 11 19 8 7-4 7-18v-406q3 6 7 11z" />
<glyph unicode="&#xf04b;" glyph-name="uniF04B" horiz-adv-x="805" d="M791 347l-759-421q-13-8-23-2-9 6-9 20v842q0 14 9 20 10 6 23-2l759-421q13-8 13-18t-13-18v0z" />
<glyph unicode="&#xf04c;" glyph-name="uniF04C" d="M878 767v-804q0-15-11-26t-26-11h-292q-15 0-26 11t-11 26v804q0 15 11 26t26 11h292q15 0 26-11t11-26v0zM366 767v-804q0-15-11-26t-26-11h-292q-15 0-26 11t-11 26v804q0 15 11 26t26 11h292q15 0 26-11t11-26v0z" />
<glyph unicode="&#xf04d;" glyph-name="uniF04D" d="M878 767v-804q0-15-11-26t-26-11h-804q-15 0-26 11t-11 26v804q0 15 11 26t26 11h804q15 0 26-11t11-26v0z" />
<glyph unicode="&#xf04e;" glyph-name="uniF04E" horiz-adv-x="951" d="M26-66q-11-11-19-8-7 4-7 18v842q0 14 7 18 8 3 19-8l405-405q5-5 8-11v406q0 14 7 18 8 3 19-8l405-405q11-11 11-26t-11-26l-405-405q-11-11-19-8-7 4-7 18v406q-3-6-8-11z" />
<glyph unicode="&#xf050;" glyph-name="uniF050" d="M26-66q-11-11-19-8-7 4-7 18v842q0 14 7 18 8 3 19-8l405-405q5-5 8-11v406q0 14 7 18 8 3 19-8l405-405q5-5 8-11v387q0 15 11 26 10 11 25 11h73q15 0 26-11t11-26v-804q0-15-11-26t-26-11h-73q-15 0-25 11-11 11-11 26v387q-3-6-8-11l-405-405q-11-11-19-8-7 4-7 18v406q-3-6-8-11z" />
<glyph unicode="&#xf051;" glyph-name="uniF051" horiz-adv-x="585" d="M26-66q-11-11-19-8-7 4-7 18v842q0 14 7 18 8 3 19-8l405-405q5-5 8-11v387q0 15 11 26t25 11h74q14 0 25-11t11-26v-804q0-15-11-26t-25-11h-74q-14 0-25 11t-11 26v387q-3-6-8-11z" />
<glyph unicode="&#xf052;" glyph-name="uniF052" horiz-adv-x="879" d="M8 318l406 405q11 11 25 11 15 0 26-11l406-405q11-11 7-19-3-7-18-7h-841q-15 0-18 7-4 8 7 19v0zM842-1h-805q-15 0-26 11-10 11-10 26v146q0 15 10 26 11 11 26 11h805q15 0 25-11 11-11 11-26v-146q0-15-11-26-10-11-25-11v0z" />
<glyph unicode="&#xf053;" glyph-name="uniF053" horiz-adv-x="658" d="M424-22l-373 372q-21 21-21 52 0 30 21 52l373 372q21 21 52 21 30 0 51-21l43-43q21-21 21-52t-21-52l-277-277 277-278q21-21 21-52 0-30-21-51l-43-43q-21-21-51-21-31 0-52 21v0z" />
<glyph unicode="&#xf054;" glyph-name="uniF054" horiz-adv-x="658" d="M628 402q0-30-21-52l-373-372q-21-22-51-22t-52 22l-43 42q-21 23-21 52 0 31 21 52l278 278-278 277q-21 22-21 52t21 51l43 43q21 22 52 22t51-22l373-372q21-21 21-51v0z" />
<glyph unicode="&#xf055;" glyph-name="uniF055" d="M695 328v74q0 14-11 25t-26 11h-146v146q0 15-11 26t-26 11h-73q-15 0-25-11-11-11-11-26v-146h-147q-14 0-25-11t-11-25v-74q0-14 11-25t25-11h147v-146q0-15 11-26 10-11 25-11h73q15 0 26 11t11 26v146h146q15 0 26 11t11 25zM878 365q0-119-59-220t-160-160-220-59q-120 0-220 59-101 59-160 160t-59 220 59 220 160 160q100 59 220 59 119 0 220-59t160-160 59-220v0z" />
<glyph unicode="&#xf056;" glyph-name="uniF056" d="M695 328v74q0 14-11 25t-26 11h-439q-14 0-25-11t-11-25v-74q0-14 11-25t25-11h439q15 0 26 11t11 25zM878 365q0-119-59-220t-160-160-220-59q-120 0-220 59-101 59-160 160t-59 220 59 220 160 160q100 59 220 59 119 0 220-59t160-160 59-220v0z" />
<glyph unicode="&#xf057;" glyph-name="uniF057" d="M657 236q0 15-11 26l-104 103 104 103q11 11 11 26 0 16-11 26l-52 52q-11 11-26 11t-26-11l-103-104-104 104q-10 11-25 11-16 0-27-11l-51-52q-11-10-11-26 0-15 11-26l103-103-103-103q-11-11-11-26 0-16 11-26l51-52q11-11 27-11 15 0 25 11l104 104 103-104q11-11 26-11t26 11l52 52q11 10 11 26zM878 365q0-119-59-220t-160-160-220-59q-120 0-220 59-101 59-160 160t-59 220 59 220 160 160q100 59 220 59 119 0 220-59t160-160 59-220v0z" />
<glyph unicode="&#xf058;" glyph-name="uniF058" d="M734 458q0 16-11 26l-52 51q-10 11-25 11t-26-11l-233-232-129 129q-11 11-26 11t-26-11l-52-52q-10-10-10-26 0-15 10-26l207-206q11-11 26-11t26 11l310 310q11 10 11 26v0zM878 365q0-119-59-220t-160-160-220-59q-120 0-220 59-101 59-160 160t-59 220 59 220 160 160q100 59 220 59 119 0 220-59t160-160 59-220v0z" />
<glyph unicode="&#xf059;" glyph-name="uniF059" d="M512 91v109q0 8-5 13-6 6-13 6h-110q-7 0-13-6-5-5-5-13v-109q0-8 5-13 6-6 13-6h110q7 0 13 6 5 5 5 13zM658 475q0 55-33 98-34 43-83 64t-103 21-104-21q-49-21-82-64-34-43-34-98v-14l1-7q1-6 2-6t3-5q2-4 5-4 3 1 8-1h109q8 0 14 5 5 5 5 13 0 7 6 16 11 18 29 28 18 11 38 11 22 0 47-12t25-33q0-19-15-33t-36-25-43-24q-21-13-36-36-15-24-15-56v-20q1-7 2-7t3-5q2-4 5-4 3 1 8-1h110q9 0 13 6t5 14 8 19 21 18q34 19 40 23 36 25 56 61 21 37 21 79v0zM878 365q0-119-59-220t-160-160-220-59q-120 0-220 59-101 59-160 160t-59 220 59 220 160 160q100 59 220 59 119 0 220-59t160-160 59-220v0z" />
<glyph unicode="&#xf05a;" glyph-name="uniF05A" d="M585 91v36q0 8-5 13-5 6-13 6h-55v274q0 8-5 13t-13 5h-183q-8 0-13-5t-5-13v-37q0-8 5-13t13-5h55v-219h-55q-8 0-13-6-5-5-5-13v-36q0-8 5-13 5-6 13-6h256q8 0 13 6 5 5 5 13v0zM512 530v109q0 8-5 13-5 6-13 6h-110q-8 0-13-6-5-5-5-13v-109q0-8 5-14 5-5 13-5h110q8 0 13 5 5 6 5 14v0zM878 365q0-119-59-220t-160-160-220-59q-120 0-220 59-101 59-160 160t-59 220 59 220 160 160q100 59 220 59 119 0 220-59t160-160 59-220v0z" />
<glyph unicode="&#xf05b;" glyph-name="uniF05B" d="M684 292h-62q-15 0-26 11t-11 25v74q0 14 11 25t26 11h62q-18 62-64 108t-108 64v-62q0-15-11-26t-26-11h-73q-15 0-25 11-11 11-11 26v62q-62-18-108-64t-64-108h62q15 0 26-11t11-25v-74q0-14-11-25t-26-11h-62q18-62 64-108t108-64v62q0 15 11 26 10 11 25 11h73q15 0 26-11t11-26v-62q62 18 108 64t64 108zM878 402v-74q0-14-11-25t-26-11h-82q-21-92-88-159t-159-89v-81q0-15-11-26t-26-11h-73q-15 0-25 11-11 11-11 26v81q-92 22-159 89-68 67-89 159h-81q-15 0-26 11t-11 25v74q0 14 11 25t26 11h81q21 92 89 159 67 67 159 89v81q0 15 11 26 10 11 25 11h73q15 0 26-11t11-26v-81q92-22 159-89t88-159h82q15 0 26-11t11-25v0z" />
<glyph unicode="&#xf05c;" glyph-name="uniF05C" d="M643 255q0-15-10-25l-59-59q-10-10-25-10-16 0-26 10l-84 84-84-84q-10-10-26-10-15 0-26 10l-58 59q-10 10-10 25 0 16 10 26l84 84-84 84q-10 10-10 26 0 15 10 25l58 59q11 10 26 10 16 0 26-10l84-84 84 84q10 10 26 10 15 0 25-10l59-59q10-10 10-25 0-16-10-26l-84-84 84-84q10-10 10-26v0zM731 365q0 59-23 113t-62 94q-40 39-94 62-54 24-113 24-60 0-114-24-54-23-93-62-39-40-63-94-23-54-23-113t23-113q24-54 63-94 39-39 93-62 54-24 114-24 59 0 113 24 54 23 94 62 39 40 62 94t23 113zM878 365q0-119-59-220t-160-160-220-59q-120 0-220 59-101 59-160 160t-59 220 59 220 160 160q100 59 220 59 119 0 220-59t160-160 59-220v0z" />
<glyph unicode="&#xf05d;" glyph-name="uniF05D" d="M679 438q0-15-10-26l-241-241q-10-10-26-10-15 0-25 10l-168 168q-11 11-11 26t11 26l58 58q10 10 26 10 15 0 25-10l84-84 157 157q11 10 26 10 16 0 26-10l58-58q10-10 10-26v0zM731 365q0 59-23 113t-62 94q-40 39-94 62-54 24-113 24-60 0-114-24-54-23-93-62-39-40-63-94-23-54-23-113t23-113q24-54 63-94 39-39 93-62 54-24 114-24 59 0 113 24 54 23 94 62 39 40 62 94t23 113zM878 365q0-119-59-220t-160-160-220-59q-120 0-220 59-101 59-160 160t-59 220 59 220 160 160q100 59 220 59 119 0 220-59t160-160 59-220v0z" />
<glyph unicode="&#xf05e;" glyph-name="uniF05E" d="M731 365q0 79-40 149l-401-401q69-41 149-41 59 0 113 24 54 23 94 62 39 40 62 94t23 113v0zM187 216l400 401q-69 41-148 41-60 0-114-24-54-23-93-62-39-40-63-94-23-54-23-113 0-79 41-149v0zM878 365q0-119-59-220t-160-160-220-59q-120 0-220 59-101 59-160 160t-59 220 59 220 160 160q100 59 220 59 119 0 220-59t160-160 59-220v0z" />
<glyph unicode="&#xf060;" glyph-name="uniF060" d="M878 365v-73q0-30-19-52-18-21-48-21h-402l167-168q22-21 22-52t-22-51l-43-44q-21-21-51-21t-52 21l-372 373q-21 21-21 51t21 52l372 372q21 22 52 22 29 0 51-22l43-42q22-22 22-52 0-31-22-52l-167-168h402q30 0 48-21 19-22 19-52v0z" />
<glyph unicode="&#xf061;" glyph-name="uniF061" d="M841 328q0-30-21-52l-372-372q-22-21-52-21-29 0-51 21l-43 43q-22 22-22 52 0 31 22 52l167 168h-402q-30 0-48 21-19 22-19 52v73q0 30 19 52 18 21 48 21h402l-167 168q-22 21-22 52 0 30 22 51l43 43q21 22 51 22t52-22l372-372q21-20 21-52v0z" />
<glyph unicode="&#xf062;" glyph-name="uniF062" horiz-adv-x="951" d="M921 322q0-29-22-51l-42-43q-22-22-52-22-31 0-52 22l-168 167v-402q0-30-21-48-22-19-52-19h-73q-30 0-52 19-21 18-21 48v402l-168-167q-21-22-52-22t-51 22l-43 43q-22 21-22 51t22 52l372 372q20 21 51 21t52-21l372-372q22-22 22-52v0z" />
<glyph unicode="&#xf063;" glyph-name="uniF063" horiz-adv-x="951" d="M921 402q0-31-22-52l-372-372q-22-22-52-22t-51 22l-372 372q-22 21-22 52 0 30 22 52l42 42q23 22 52 22 31 0 52-22l168-168v403q0 29 21 51 22 22 52 22h73q30 0 51-22 22-22 22-51v-403l168 168q21 22 52 22 29 0 52-22l42-42q22-23 22-52v0z" />
<glyph unicode="&#xf064;" glyph-name="uniF064" d="M1024 511q0-15-11-25l-292-293q-11-11-26-11t-26 11-11 26v146h-128q-56 0-100-3-44-4-88-13t-76-24-60-40q-28-24-46-57-18-34-28-80-10-45-10-103 0-31 3-70 0-4 2-14 1-10 1-15 0-8-5-14t-13-6q-9 0-16 10-4 5-8 12-3 8-7 18-5 9-6 13-73 163-73 258 0 114 30 190 93 231 500 231h128v146q0 15 11 26 11 10 26 10t26-10l292-293q11-11 11-26v0z" />
<glyph unicode="&#xf065;" glyph-name="uniF065" d="M431 274q0-8-5-14l-190-189 82-83q11-10 11-25t-11-26-25-11h-256q-15 0-26 11t-11 26v256q0 15 11 25 11 11 26 11 14 0 25-11l83-82 189 190q6 6 13 6 8 0 14-6l65-65q5-6 5-13v0zM878 767v-256q0-15-11-25-11-11-26-11t-26 11l-82 82-190-190q-5-6-13-6-7 0-13 6l-65 65q-6 6-6 13 0 8 6 14l190 189-83 83q-10 10-10 25t10 26q11 11 26 11h256q15 0 26-11t11-26v0z" />
<glyph unicode="&#xf066;" glyph-name="uniF066" d="M439 328v-256q0-14-11-25t-26-11-25 11l-83 82-189-190q-6-5-14-5-7 0-13 5l-65 65q-6 6-6 14 0 7 6 13l190 189-82 83q-11 11-11 25 0 15 11 26 10 11 25 11h256q15 0 26-11t11-26v0zM870 712q0-7-5-13l-190-189 82-83q11-11 11-25 0-15-11-26t-26-11h-256q-14 0-25 11t-11 26v256q0 14 11 25t25 11q15 0 26-11l82-82 190 190q6 5 13 5 8 0 13-5l66-65q5-6 5-14v0z" />
<glyph unicode="&#xf067;" glyph-name="uniF067" horiz-adv-x="805" d="M805 456v-109q0-23-16-39t-39-16h-238v-238q0-23-16-39t-39-16h-110q-22 0-38 16t-16 39v238h-238q-23 0-39 16t-16 39v109q0 23 16 39t39 16h238v238q0 23 16 39t38 16h110q23 0 39-16t16-39v-238h238q23 0 39-16t16-39v0z" />
<glyph unicode="&#xf068;" glyph-name="uniF068" horiz-adv-x="805" d="M805 456v-109q0-23-16-39t-39-16h-695q-23 0-39 16t-16 39v109q0 23 16 39t39 16h695q23 0 39-16t16-39z" />
<glyph unicode="&#xf069;" glyph-name="uniF069" horiz-adv-x="951" d="M847 277q26-15 34-44 8-30-7-56l-37-63q-15-26-44-34-30-8-56 7l-152 88v-176q0-29-22-51-21-22-51-22h-73q-30 0-52 22-21 22-21 51v176l-152-88q-27-15-56-7t-44 34l-37 63q-15 26-7 56 8 29 34 44l152 88-152 88q-26 15-34 44-8 30 7 56l37 63q15 26 44 34t56-7l152-88v176q0 29 21 51 22 22 52 22h73q30 0 51-22 22-22 22-51v-176l152 88q26 15 56 7 29-8 44-34l37-63q15-26 7-56-8-29-34-44l-152-88z" />
<glyph unicode="&#xf06a;" glyph-name="uniF06A" d="M439 804q119 0 220-59t160-160 59-220-59-220-160-160-220-59q-120 0-220 59-101 59-160 160t-59 220 59 220 160 160q100 59 220 59zM512 91v109q0 8-5 13-5 6-13 6h-109q-8 0-14-6-5-6-5-13v-109q0-7 5-13 6-6 14-6h109q8 0 13 6 5 5 5 13v0zM511 288l10 355q0 7-6 10-5 5-13 5h-126q-8 0-14-5-5-3-5-10l9-355q0-6 6-10t14-4h105q8 0 14 4 5 4 6 10v0z" />
<glyph unicode="&#xf06b;" glyph-name="uniF06B" d="M530 102v409h-183v-409q0-14 11-22t26-8h110q15 0 26 8 10 8 10 22v0zM270 584h111l-72 92q-14 18-39 18-23 0-39-16t-16-39 16-39 39-16v0zM663 639q0 23-16 39t-39 16q-26 0-39-18l-72-92h111q23 0 39 16t16 39v0zM878 493v-183q0-8-6-12-6-5-15-6-10-2-19-2-8 0-19 1-12 1-14 1v-238q0-23-16-39t-39-16h-622q-23 0-39 16t-16 39v238q-3 0-14-1t-20-1q-8 0-18 2-10 1-15 6-6 4-6 12v183q0 7 5 13 6 5 13 5h252q-53 0-91 38-37 37-37 90t37 91q38 37 91 37 61 0 96-44l73-94 73 94q34 44 96 44 53 0 91-37 37-38 37-91t-37-90q-38-38-91-38h251q8 0 13-5 6-6 6-13v0z" />
<glyph unicode="&#xf06c;" glyph-name="uniF06C" d="M731 475q0 15-10 25-11 11-26 11-98 0-182-28-83-28-148-77-65-48-135-125-11-12-11-26 0-15 11-25 11-11 26-11 14 0 26 11 15 13 42 40l38 38q79 71 154 100 75 30 179 30 15 0 26 11 10 11 10 26v0zM1024 588q0-54-11-110-27-128-106-219t-204-153q-122-62-250-62-85 0-164 27-8 3-50 24t-55 21q-9 0-23-18-13-19-25-40-13-22-30-40-18-19-35-19t-29 7q-12 6-17 13-6 8-16 24-1 3-3 7-3 4-3 5-1 2-2 6-1 3-1 7 0 20 18 42 17 22 39 38 21 15 38 32 18 16 18 27 0 3-8 22t-9 25q-5 29-5 60 0 65 25 125t68 106q43 45 97 79t117 55q31 10 83 14 51 5 102 5 51 1 102 4 51 2 94 14 42 11 64 32l17 17 17 16q17 16 16 11-2-4 20 9 23 14 25 3 23 0 41-26 18-27 27-64 9-38 13-71 5-33 5-55v0z" />
<glyph unicode="&#xf06d;" glyph-name="uniF06D" horiz-adv-x="805" d="M805-92v-37q0-7-6-13-5-5-13-5h-768q-7 0-13 5-5 6-5 13v37q0 7 5 13 6 5 13 5h768q8 0 13-5 6-6 6-13zM658 511q0-44-14-82t-36-64q-23-27-50-51-28-23-55-44-28-20-50-41-23-21-37-47t-14-55q0-55 39-128l-3 1 1-1q-52 24-92 48t-79 57-65 70q-25 37-41 86t-16 105q0 45 14 82 14 38 37 65 22 26 50 50 27 24 55 44 27 21 50 41 22 21 36 47t14 55q0 54-37 128l1-1v1q51-23 91-47t79-58q39-33 65-70 26-36 42-86 15-49 15-105v0z" />
<glyph unicode="&#xf06e;" glyph-name="uniF06E" d="M951 328q-87 135-218 202 35-59 35-128 0-106-75-181t-181-75-181 75-75 181q0 69 35 128-131-67-218-202 76-117 191-186 114-70 248-70t248 70q115 69 191 186zM539 548q0 11-8 19t-19 8q-71 0-123-51-51-51-51-122 0-12 8-20t20-8q11 0 19 8t8 20q0 49 35 84 35 34 84 34 11 0 19 8t8 20v0zM1024 328q0-19-11-39-80-131-216-211-135-79-285-79t-285 80q-136 79-216 210-11 20-11 39 0 20 11 40 80 131 216 210 135 80 285 80t285-80q136-79 216-210 11-20 11-40v0z" />
<glyph unicode="&#xf070;" glyph-name="uniF070" d="M317 114l45 81q-50 36-78 91-28 54-28 116 0 69 35 128-131-67-218-202 96-147 244-214v0zM539 548q0 11-8 19t-19 8q-71 0-123-51-51-51-51-122 0-12 8-20t20-8q11 0 19 8t8 20q0 49 35 84 35 34 84 34 11 0 19 8t8 20v0zM747 657q0-4-1-5l-360-648-28-50q-6-10-16-10-7 0-77 40-9 6-9 16 0 7 25 50-82 37-150 99-69 62-120 140-11 18-11 39 0 22 11 40 88 134 218 212 129 78 283 78 51 0 103-10l31 55q5 9 16 9 3 0 10-3t18-9q10-5 19-10 8-6 18-11 9-5 11-7 9-5 9-15v0zM768 402q0-80-45-145-45-66-120-94l160 287q5-26 5-48v0zM1024 328q0-20-11-39-23-37-63-83-85-98-198-152-113-55-240-55l42 76q121 10 225 78 103 68 172 175-66 103-161 168l36 64q54-36 104-87t83-105q11-20 11-40v0z" />
<glyph unicode="&#xf071;" glyph-name="uniF071" d="M585 91v109q0 8-5 13-6 6-13 6h-110q-7 0-13-6-5-5-5-13v-109q0-8 5-13 6-6 13-6h110q7 0 13 6 5 5 5 13v0zM584 305l10 262q0 7-5 11-8 6-14 6h-126q-6 0-14-6-5-4-5-12l9-261q0-6 6-9 6-4 14-4h106q8 0 13 4 5 3 6 9v0zM576 839l439-805q20-36-1-72-10-16-27-26t-36-10h-878q-19 0-36 10t-27 26q-21 36-1 72l439 805q10 17 27 28 17 10 37 10t37-10q17-11 27-28v0z" />
<glyph unicode="&#xf072;" glyph-name="uniF072" horiz-adv-x="805" d="M798 756q0-50-85-135l-137-137 82-426v-4q0-8-5-13l-36-37q-6-5-14-5-12 0-16 11l-157 328-140-140q39-136 39-144t-5-13l-37-37q-5-5-13-5-10 0-16 9l-88 160-160 89q-10 5-10 16 0 8 5 13l37 37q5 5 13 5t144-38l140 140-329 156q-10 5-10 17 0 8 5 13l37 36q5 6 13 6 2 0 3-1l427-82 137 137q85 86 135 86 18 0 30-12 11-12 11-30v0z" />
<glyph unicode="&#xf073;" glyph-name="uniF073" horiz-adv-x="951" d="M73-74h165v165h-165v-165zM274-74h183v165h-183v-165zM73 127h165v183h-165v-183zM274 127h183v183h-183v-183zM73 347h165v164h-165v-164zM494-74h183v165h-183v-165zM274 347h183v164h-183v-164zM713-74h165v165h-165v-165zM494 127h183v183h-183v-183zM293 621v165q0 7-6 12-5 6-13 6h-36q-8 0-13-6-6-5-6-12v-165q0-7 6-13 5-5 13-5h36q8 0 13 5 6 6 6 13v0zM713 127h165v183h-165v-183zM494 347h183v164h-183v-164zM713 347h165v164h-165v-164zM731 621v165q0 7-5 12-5 6-13 6h-36q-8 0-13-6-6-5-6-12v-165q0-7 6-13 5-5 13-5h36q8 0 13 5 5 6 5 13v0zM951 658v-732q0-30-22-51-22-22-51-22h-805q-30 0-51 22-22 21-22 51v732q0 29 22 51 21 22 51 22h73v55q0 37 27 64t65 27h36q38 0 65-27t27-64v-55h219v55q0 37 27 64t65 27h36q38 0 65-27t27-64v-55h73q29 0 51-22t22-51v0z" />
<glyph unicode="&#xf074;" glyph-name="uniF074" d="M381 602q-35-52-79-156-12 26-21 42-8 15-23 36-15 20-29 32-15 12-36 20-22 8-47 8h-128q-8 0-13 6-5 5-5 13v109q0 8 5 14 5 5 13 5h128q143 0 235-129v0zM1024 146q0-8-5-14l-183-182q-5-6-13-6t-13 6q-5 5-5 13v109h-95q-16-1-42 0t-41 3q-14 2-36 6t-36 11q-14 6-33 16t-34 23-31 30q-17 18-32 40 33 53 77 156 13-26 21-41 9-16 24-37 14-20 29-32 14-12 36-20 21-8 46-8h147v109q0 8 5 14 5 5 13 5 7 0 14-6l182-182q5-5 5-13v0zM1024 658q0-8-5-14l-183-182q-5-6-13-6t-13 6q-5 5-5 13v109h-147q-27 0-49-8-23-9-40-26t-29-35-26-44q-18-36-44-98-17-38-29-63-11-26-30-60-20-35-37-58-17-22-42-47t-52-39q-26-15-61-24-34-10-73-10h-128q-8 0-13 6-5 5-5 13v109q0 8 5 14 5 5 13 5h128q28 0 50 8 22 9 39 26 18 17 30 35t25 44q19 36 45 98 16 38 28 64 12 25 31 60 19 34 37 57 17 23 42 47 25 25 51 39 27 15 61 24 34 10 73 10h147v109q0 8 5 14 5 5 13 5 7 0 14-6l182-182q5-5 5-13v0z" />
<glyph unicode="&#xf075;" glyph-name="uniF075" d="M1024 365q0-99-69-184-68-84-186-133t-257-49q-40 0-83 5-113-100-263-138-28-8-65-13-10-1-17 5-8 6-10 17v0q-2 3-1 7 2 5 2 6-1 1 2 5l12 15q4 5 18 20t20 22q6 6 17 22 12 16 19 30 7 13 15 33 9 21 15 44-90 51-141 125-52 75-52 161 0 74 41 142 40 68 109 117 68 49 163 78t199 29q139 0 257-49t186-133q69-85 69-184v0z" />
<glyph unicode="&#xf076;" glyph-name="uniF076" d="M878 402v-74q0-114-57-206-56-92-156-144t-226-52-226 52-157 144q-56 92-56 206v74q0 14 11 25t26 11h219q15 0 26-11t11-25v-74q0-29 13-51t31-33q17-10 40-17 24-6 37-7t25-1 25 1 37 7q23 7 40 17 17 11 31 33 13 22 13 51v74q0 14 11 25t26 11h219q15 0 26-11t11-25v0zM293 767v-219q0-15-11-26t-26-11h-219q-15 0-26 11t-11 26v219q0 15 11 26t26 11h219q15 0 26-11t11-26v0zM878 767v-219q0-15-11-26t-26-11h-219q-15 0-26 11t-11 26v219q0 15 11 26t26 11h219q15 0 26-11t11-26v0z" />
<glyph unicode="&#xf077;" glyph-name="uniF077" horiz-adv-x="951" d="M921 182q0-30-22-51l-42-43q-22-22-52-22-31 0-52 22l-278 277-277-277q-21-22-52-22t-51 22l-43 43q-22 20-22 51 0 30 22 52l372 372q21 21 51 21t52-21l372-372q22-22 22-52v0z" />
<glyph unicode="&#xf078;" glyph-name="uniF078" horiz-adv-x="951" d="M921 475q0-31-22-52l-372-372q-21-21-52-21-30 0-51 21l-372 372q-22 21-22 52 0 30 22 52l42 43q23 21 52 21 31 0 52-21l277-278 278 278q21 21 52 21 29 0 52-21l42-43q22-23 22-52v0z" />
<glyph unicode="&#xf079;" glyph-name="uniF079" horiz-adv-x="1097" d="M731 18q0-8-5-13-5-6-13-6h-548q-5 0-8 1-3 2-5 4-2 3-3 5-2 2-2 7-1 4-1 6v343h-109q-15 0-26 11t-11 26q0 13 9 23l182 219q11 13 28 13 18 0 28-13l183-219q9-10 9-23 0-15-11-26t-26-11h-109v-219h329q9 0 14-7l91-109q4-7 4-12v0zM1097 255q0-13-8-23l-183-220q-12-13-28-13-17 0-28 13l-183 220q-9 10-9 23 0 15 11 26t26 11h110v219h-330q-9 0-14 7l-91 110q-4 5-4 11 0 8 5 13 6 6 13 6h549q4 0 7-2 3-1 5-4l4-4q1-2 1-7 1-5 1-6v-343h110q14 0 25-11t11-26v0z" />
<glyph unicode="&#xf07a;" glyph-name="uniF07A" horiz-adv-x="951" d="M366-1q0-30-22-51-21-22-51-22-31 0-52 22-22 21-22 51 0 31 22 52 21 21 52 21 30 0 51-21 22-21 22-52v0zM878-1q0-30-22-51-21-22-51-22-31 0-52 22-22 21-22 51 0 31 22 52 21 21 52 21 30 0 51-21 22-21 22-52v0zM951 621v-293q0-13-9-24-9-10-24-12l-596-70q0-4 2-12t4-15q1-7 1-13 0-9-14-36h526q15 0 26-11t11-26-11-26-26-11h-585q-15 0-26 11t-11 26q0 8 7 23 6 14 17 34 10 19 11 21l-101 471h-116q-15 0-26 10-11 11-11 26t11 26 26 11h146q9 0 16-4t12-9q4-5 7-14t4-15 3-17q2-10 3-14h686q15 0 26-11t11-26v0z" />
<glyph unicode="&#xf07b;" glyph-name="uniF07B" horiz-adv-x="951" d="M951 530v-403q0-52-38-90t-90-38h-695q-53 0-90 38-38 38-38 90v549q0 52 38 90 37 38 90 38h183q52 0 90-38t38-90v-18h384q52 0 90-38t38-90v0z" />
<glyph unicode="&#xf07c;" glyph-name="uniF07C" horiz-adv-x="1097" d="M1074 333q0-18-18-38l-192-226q-25-29-69-49-44-21-82-21h-622q-19 0-34 8-15 7-15 24 0 18 17 38l192 226q25 29 69 50 45 20 82 20h622q19 0 35-7 15-8 15-25zM878 530v-92h-476q-53 0-112-27t-94-68l-195-230q0 2-1 7v556q0 52 38 90 37 38 90 38h183q52 0 90-38t38-90v-18h311q52 0 90-38t38-90v0z" />
<glyph unicode="&#xf07d;" glyph-name="uniF07D" horiz-adv-x="439" d="M402 694q0-15-11-26-10-10-25-10h-73v-586h73q15 0 25-10 11-11 11-26t-11-26l-146-146q-11-11-26-11-14 0-25 11l-147 146q-10 11-10 26t10 26q11 10 26 10h73v586h-73q-15 0-26 10-10 11-10 26t10 26l147 146q11 11 25 11 15 0 26-11l146-146q11-11 11-26v0z" />
<glyph unicode="&#xf07e;" glyph-name="uniF07E" d="M1024 365q0-15-11-26l-146-146q-11-11-26-11t-26 11q-10 11-10 26v73h-586v-73q0-15-10-26-11-11-26-11t-26 11l-146 146q-11 11-11 26t11 26l146 146q11 11 26 11t26-11q10-11 10-26v-73h586v73q0 15 10 26 11 11 26 11t26-11l146-146q11-11 11-26v0z" />
<glyph unicode="&#xf080;" glyph-name="uniF080" horiz-adv-x="1097" d="M293 292v-220h-147v220h147zM512 584v-512h-146v512h146zM731 438v-366h-146v366h146zM951 658v-586h-146v586h146zM1024 18v694q0 8-5 13-6 6-13 6h-915q-7 0-12-6-6-5-6-13v-694q0-8 6-13 5-6 12-6h915q7 0 13 6 5 5 5 13zM1097 712v-694q0-38-27-65t-64-27h-915q-37 0-64 27t-27 65v694q0 38 27 65t64 27h915q37 0 64-27t27-65z" />
<glyph unicode="&#xf081;" glyph-name="uniF081" d="M731 547q0 7-5 13-5 5-13 5-3 0-8-2 11 19 11 31 0 8-5 13-6 5-13 5-4 0-10-2-34-20-55-25-38 36-88 36-56 0-94-41-38-42-37-97v-7q-61 8-107 36-46 29-90 80-6 7-16 7-15 0-23-29-9-29-9-50 0-35 17-66-8-2-13-7-4-5-4-13 0-64 46-106-7-4-7-14 0-3 1-5 8-29 28-52 21-23 49-35-44-24-95-24h-13q-9 1-13 1-8 0-13-5-6-6-6-13 0-10 8-15 36-27 86-42t97-15q74 0 142 33 95 45 146 133 52 88 50 194v7q16 12 36 36 20 23 20 35v0zM878 639v-548q0-68-49-117-48-48-116-48h-548q-68 0-117 48-48 49-48 117v548q0 68 48 117 49 48 117 48h548q68 0 116-48 49-49 49-117v0z" />
<glyph unicode="&#xf082;" glyph-name="uniF082" d="M713 804q68 0 116-48 49-49 49-117v-548q0-68-49-117-48-48-116-48h-200q-1 0-1 1v383h101q18 0 18 13l7 94q1 9-4 14-6 7-14 7h-108v41q0 25 7 33 6 7 31 7 32 0 67-7 7-2 14 3 7 4 8 12l13 95q1 7-3 13t-11 8q-53 15-113 15-178 0-178-171v-49h-54q-7 0-13-6t-6-14v-98q0-5 3-7l6-3h64v-383l6-1h-188q-68 0-117 48-48 49-48 117v548q0 68 48 117 49 48 117 48h548z" />
<glyph unicode="&#xf083;" glyph-name="uniF083" d="M530 402q0 8-5 13t-13 5q-38 0-65-27-26-27-26-65 0-8 5-13t13-5 13 5 5 13q0 23 16 39t39 16q8 0 13 5 5 6 5 14v0zM658 327q0-60-43-103-42-43-103-43t-103 43q-43 43-43 103 0 61 43 104 42 43 103 43t103-43q43-43 43-104zM73-1h878v73h-878v-73zM731 327q0 91-64 155-64 65-155 65t-155-65q-64-64-64-155t64-155 155-64 155 64 64 155v0zM146 694h220v73h-220v-73zM73 584h878v147h-473l-37-73h-368v-74zM1024 731v-732q0-30-21-51-22-22-52-22h-878q-30 0-52 22-21 21-21 51v732q0 30 21 51 22 22 52 22h878q30 0 52-22 21-21 21-51v0z" />
<glyph unicode="&#xf084;" glyph-name="uniF084" d="M475 584q0 46-32 78t-77 32q-46 0-78-32t-32-78q0-24 11-47-24 11-48 11-45 0-77-32t-32-78 32-78 77-32q46 0 78 32t32 78q0 24-11 48 24-11 48-11 45 0 77 32t32 77v0zM962 182q0-10-28-38t-38-28q-5 0-16 10-11 9-21 18-10 10-22 23t-14 15l-55-55 126-125q16-16 16-39 0-24-23-47-22-22-46-22-23 0-39 16l-383 384q-101-75-209-75-93 0-151 58-59 59-59 152 0 91 54 179 55 87 142 142 87 54 179 54 93 0 152-59 58-58 58-151 0-108-75-209l203-203 55 55q-2 2-15 14t-23 22q-9 10-19 21-9 11-9 16 0 10 28 38t38 28q7 0 13-6 4-3 26-25 23-22 47-46 24-23 50-49 25-26 41-44 17-19 17-24v0z" />
<glyph unicode="&#xf085;" glyph-name="uniF085" horiz-adv-x="1097" d="M512 365q0 61-43 103-43 43-103 43-61 0-104-43-43-42-43-103t43-103q43-43 104-43 60 0 103 43 43 42 43 103zM951 72q0 30-22 52t-51 22q-30 0-52-22-21-22-21-52t21-51q21-22 52-22 30 0 51 22 22 21 22 51v0zM951 658q0 29-22 51t-51 22q-30 0-52-22-21-22-21-51 0-31 21-52 21-22 52-22 30 0 51 22 22 21 22 52v0zM731 417v-106q0-5-4-11-4-5-9-6l-88-14q-7-20-19-43 20-27 52-66 4-5 4-11 0-7-4-11-13-17-47-51t-45-34q-6 0-12 4l-66 51q-21-11-44-17-6-62-13-89-4-14-17-14h-106q-7 0-12 5-5 4-6 10l-13 87q-19 6-43 18l-67-51q-4-4-11-4t-12 4q-83 76-83 92 0 5 4 11 6 8 24 30 17 22 27 35-14 25-20 47l-87 13q-6 1-10 6t-4 11v106q0 5 4 11 4 5 9 6l89 14q6 20 18 43-19 27-51 66-4 6-4 11 0 7 4 12 12 17 46 50 35 34 46 34 6 0 12-4l65-51q20 10 44 18 7 62 13 88 4 14 18 14h106q6 0 11-5 5-4 6-10l13-87q20-6 43-18l67 51q5 4 12 4 6 0 12-4 82-76 82-92 0-5-4-11-7-9-24-31-17-21-26-34 14-27 20-47l87-13q5-1 9-6t4-11v0zM1097 112v-80q0-9-85-17-7-16-17-30 29-65 29-79 0-2-2-4-70-40-71-40-5 0-26 26-22 27-30 39-12-1-17-1-6 0-17 1-8-12-30-39-22-26-26-26-2 0-71 40-3 2-3 4 0 14 30 79-11 14-18 30-85 8-85 17v80q0 10 85 18 8 17 18 30-30 64-30 79 0 2 3 4 2 1 20 11 17 10 33 20 16 9 18 9 4 0 26-27 22-26 30-38 11 1 17 1 5 0 17-1 29 40 52 64l4 1q2 0 71-40 2-2 2-4 0-15-29-79 10-13 17-30 85-8 85-18v0zM1097 698v-80q0-10-85-18-7-16-17-30 29-64 29-79 0-2-2-4-70-40-71-40-5 0-26 27-22 26-30 38-12-1-17-1-6 0-17 1-8-12-30-38-22-27-26-27-2 0-71 40-3 2-3 4 0 15 30 79-11 14-18 30-85 8-85 18v80q0 9 85 17 8 17 18 30-30 65-30 79 0 2 3 4 2 1 20 11 17 11 33 20t18 9q4 0 26-27 22-26 30-38 11 1 17 1 5 0 17-1 29 40 52 64l4 1q2 0 71-40 2-2 2-4 0-14-29-79 10-13 17-30 85-8 85-17v0z" />
<glyph unicode="&#xf086;" glyph-name="uniF086" d="M805 438q0-79-54-147-54-67-147-106t-202-39q-49 0-100 9-71-51-159-73-21-6-49-10h-2q-6 0-12 5-5 5-6 12-1 2-1 4v3l2 4 1 3 4 6q1-1 3 3 2 3 2 2 3 4 13 14 11 11 15 17 5 6 13 17 8 10 14 22 6 11 12 25-71 41-111 101-41 60-41 128 0 80 54 147 53 67 146 107 93 39 202 39t202-39q93-40 147-107t54-147v0zM1024 292q0-69-41-128-40-60-111-101 6-14 12-25 6-12 14-22 8-11 13-17 4-6 15-17 10-11 13-14 0-1 2-3l3-3q1 0 2-2l5-10q1-3 0-4-1 0-1-3-1-8-7-13-6-4-13-4-28 4-49 9-88 23-159 73-51-9-100-9-155 0-270 76 33-3 50-3 92 0 177 26 84 26 151 74 71 52 109 121 39 69 39 145 0 44-13 87 73-41 116-102t43-131v0z" />
<glyph unicode="&#xf087;" glyph-name="uniF087" d="M146 109q0 15-11 26-10 11-25 11t-26-11-11-26 11-26 26-11 25 11q11 11 11 26zM805 438q0 29-23 51-22 22-51 22h-201q0 33 28 91 27 58 27 92 0 56-18 83t-73 27q-15-15-22-49-7-33-17-71-11-38-34-63-13-13-44-52-3-3-14-17-10-14-18-24-7-9-19-24-13-15-23-25t-22-20q-12-11-23-16t-20-5h-19v-366h19q7 0 18-1 10-2 19-4 8-2 21-6 14-5 20-7 7-2 21-7 13-5 16-6 121-42 196-42h69q109 0 109 96 0 15-2 32 17 9 27 30t10 42-11 39q31 29 31 68 0 14-6 32-6 17-14 27 18 1 30 27 13 26 13 46v0zM878 439q0-51-28-93 5-19 5-40 0-44-22-82 2-12 2-25 0-57-34-101 0-80-49-126t-130-46h-73q-55 0-109 13-53 13-123 37-67 23-79 23h-165q-30 0-52 22-21 21-21 51v366q0 30 21 52 22 21 52 21h157q20 14 78 89 33 43 61 73 14 14 20 49 7 34 18 72t35 62q23 21 52 21 48 0 86-19 38-18 58-58 20-39 20-106 0-53-27-110h100q60 0 103-43 44-43 44-102v0z" />
<glyph unicode="&#xf088;" glyph-name="uniF088" d="M146 621q0 15-11 26-10 11-25 11t-26-11-11-26 11-26 26-11 25 11q11 11 11 26zM805 292q0 20-13 46-12 26-30 27 8 10 14 27 6 18 6 32 0 39-31 68 11 18 11 39t-10 42-27 30q2 17 2 32 0 49-28 72-28 24-77 24h-73q-75 0-196-42-3-1-16-6-14-5-21-7-6-2-20-7-13-4-21-6-9-2-19-4-11-1-18-1h-19v-366h19q9 0 20-5t23-16q12-10 22-20t23-25q12-15 19-24 8-10 18-24 11-14 14-17 31-39 44-52 23-25 34-63 10-38 17-71 7-34 22-49 55 0 73 27t18 83q0 34-27 92-28 58-28 91h201q29 0 51 22 23 22 23 51v0zM878 291q0-59-44-102-43-43-103-43h-100q27-57 27-110 0-68-20-106-20-40-58-58-38-19-86-19-29 0-52 21-19 19-31 47-11 28-14 52-3 23-10 48t-18 37q-27 28-61 72-58 75-78 89h-157q-30 0-52 21-21 22-21 52v366q0 30 21 51 22 22 52 22h165q12 0 79 23 73 25 127 37 54 13 114 13h64q80 0 130-45 49-45 49-124v-3q34-44 34-101 0-13-2-25 22-38 22-82 0-21-5-40 28-42 28-93v0z" />
<glyph unicode="&#xf089;" glyph-name="uniF089" horiz-adv-x="512" d="M475 859v-765l-256-135q-13-7-23-7-12 0-18 8t-6 20q0 4 1 12l49 286-208 202q-14 15-14 27 0 21 32 27l287 41 128 260q11 24 28 24v0z" />
<glyph unicode="&#xf08a;" glyph-name="uniF08A" d="M951 536q0 47-12 82-13 36-32 56-19 21-46 34-28 14-54 18-26 5-56 5t-64-15q-34-14-63-36t-50-42q-20-19-34-35-10-12-28-12t-28 12q-14 16-34 35-21 20-50 42t-63 36q-34 15-64 15t-56-5q-26-4-54-18-27-13-46-34-19-20-32-56-12-35-12-82 0-96 107-202l332-320 331 319q108 107 108 203v0zM1024 536q0-126-131-257l-356-343q-10-10-25-10t-25 10l-357 344-15 15q-10 11-32 38t-39 55q-17 29-31 70-13 40-13 78 0 126 73 197 72 71 200 71 36 0 72-12 37-13 69-34 32-20 55-39 22-18 43-39 21 21 43 39 23 19 55 39 32 21 69 34 36 12 72 12 128 0 200-71 73-71 73-197v0z" />
<glyph unicode="&#xf08b;" glyph-name="uniF08B" horiz-adv-x="951" d="M366 54v-11q1-9 1-15-1-6-2-14-2-7-6-11t-12-4h-182q-68 0-117 49-48 48-48 116v402q0 68 48 116 49 49 117 49h182q8 0 13-6 6-5 6-13v-11q1-9 1-15-1-6-2-14-2-7-6-11-4-3-12-3h-182q-38 0-65-27t-27-65v-402q0-38 27-65t65-27h184q7-1 7-2t5-3q4-2 4-5-1-3 1-8v0zM896 365q0-15-11-26l-311-311q-11-10-25-10-15 0-26 10-11 11-11 26v165h-256q-15 0-26 11-11 10-11 25v220q0 15 11 25 11 11 26 11h256v165q0 15 11 26 11 10 26 10 14 0 25-10l311-311q11-11 11-26v0z" />
<glyph unicode="&#xf08c;" glyph-name="uniF08C" d="M293 91v365q0 8-6 13-5 6-13 6h-109q-8 0-13-6-6-5-6-13v-365q0-8 6-13 5-6 13-6h109q8 0 13 6 6 5 6 13zM287 587q0 29-20 50-21 21-50 21-30 0-50-21-21-21-21-50t21-50q20-21 50-21 29 0 50 21 20 21 20 50v0zM731 91v248q0 73-42 110-42 38-115 38-52 0-91-26-6-5-8-7 0 21-20 21h-100q-8 0-17-5-9-4-9-11v-368q0-8 9-13 9-6 17-6h104q7 0 12 6 4 5 4 13v199q0 80 66 80 28 0 36-13t8-42v-224q0-8 7-13 7-6 15-6h106q8 0 13 6 5 5 5 13v0zM878 639v-548q0-68-49-117-48-48-116-48h-548q-68 0-117 48-48 49-48 117v548q0 68 48 117 49 48 117 48h548q68 0 116-48 49-49 49-117v0z" />
<glyph unicode="&#xf08d;" glyph-name="uniF08D" horiz-adv-x="658" d="M274 383v256q0 8-5 13-5 6-13 6t-13-6q-5-5-5-13v-256q0-8 5-13t13-5 13 5 5 13v0zM658 182q0-15-11-26-10-10-25-10h-245l-30-276q-1-7-6-12-4-5-11-5h-1q-15 0-18 15l-44 278h-230q-15 0-26 10-11 11-11 26 0 70 45 127 45 56 101 56v293q-29 0-51 21-22 22-22 52 0 29 22 51t51 22h366q30 0 51-22 22-22 22-51 0-30-22-52-21-21-51-21v-293q57 0 101-56 45-57 45-127v0z" />
<glyph unicode="&#xf08e;" glyph-name="uniF08E" d="M805 347v-183q0-68-49-116-48-49-116-49h-475q-68 0-117 49-48 48-48 116v475q0 68 48 117 49 48 117 48h402q8 0 13-5t5-13v-37q0-8-5-13t-13-5h-402q-38 0-65-27t-27-65v-475q0-38 27-65t65-27h475q38 0 65 27 26 27 26 65v183q0 8 6 13 5 5 13 5h36q8 0 13-5 6-5 6-13v0zM1024 840v-292q0-15-11-26t-26-11q-14 0-25 11l-101 101-372-373q-6-6-14-6-7 0-13 6l-65 65q-6 6-6 13 0 8 6 14l373 372-101 101q-11 11-11 25 0 15 11 26t26 11h292q15 0 26-11t11-26z" />
<glyph unicode="&#xf090;" glyph-name="uniF090" d="M677 365q0-15-11-26l-311-311q-11-10-26-10t-26 10q-10 11-10 26v165h-256q-15 0-26 11-11 10-11 25v220q0 15 11 25 11 11 26 11h256v165q0 15 10 26 11 10 26 10t26-10l311-311q11-11 11-26v0zM878 566v-402q0-68-49-116-48-49-116-49h-183q-7 0-13 6-5 5-5 13 0 2-1 11v15t2 14q1 7 6 11 4 3 11 3h183q38 0 65 27t27 65v402q0 38-27 65t-65 27h-185q-6 1-6 2t-5 3q-4 2-4 5 1 3-1 8 0 2-1 11v15t2 14q1 7 6 11 4 4 11 4h183q68 0 116-49 49-48 49-116v0z" />
<glyph unicode="&#xf091;" glyph-name="uniF091" horiz-adv-x="951" d="M262 372q-43 93-43 212h-146v-54q0-45 54-93t135-65v0zM878 530v54h-147q0-119-42-212 81 17 135 65t54 93v0zM951 603v-73q0-41-24-82t-64-74q-40-34-99-56-58-23-123-26-24-30-54-54-22-19-30-41t-8-51q0-31 17-52 17-22 56-22 43 0 76-26t33-65v-37q0-8-5-13t-13-5h-475q-8 0-13 5-6 5-6 13v37q0 39 34 65 33 26 76 26 38 0 56 22 17 21 17 52 0 29-8 51t-30 41q-30 24-54 54-65 3-123 26-59 22-99 56-41 33-64 74-24 41-24 82v73q0 23 16 39t39 16h164v54q0 38 27 65t65 27h329q38 0 65-27 26-27 26-65v-54h165q23 0 39-16t16-39v0z" />
<glyph unicode="&#xf092;" glyph-name="uniF092" d="M333 130q0-38-54-38-61 0-61 36t56 36q59 0 59-34v0zM312 396q0-49-42-49-44 0-44 48 0 52 44 52 20 0 31-15t11-36v0zM407 439v71q-45-16-77-16-29 16-63 16-49 0-83-32-34-33-34-82 0-29 17-58 17-30 42-39v-1q-22-10-22-49 0-30 24-44v-2q-65-21-65-79 0-34 21-56 20-22 48-29 27-8 61-8 128 0 128 107 0 28-15 45-14 17-35 24t-43 12q-21 5-35 14-15 8-15 22 0 25 28 30 44 9 70 40t26 77q0 13-6 29 17 4 28 8v0zM441 199h78q-1 12-1 52v212q0 34 1 44h-78q1-15 1-45v-216q0-31-1-47v0zM731 208v70q-17-12-38-12-31 0-31 46v129h30q5 0 15-1h15v67h-60q0 47 2 58h-80q2-14 2-31v-27h-34v-67l21 2q2 0 7-1h6v-1h-1v-124q0-21 2-37 1-15 6-32t14-28 25-17q16-7 38-7 36 0 61 13v0zM528 612q0 20-14 36-13 16-34 16t-35-16q-14-15-14-36t15-36q14-15 34-15t34 15q14 16 14 36v0zM878 639v-548q0-68-49-117-48-48-116-48h-548q-68 0-117 48-48 49-48 117v548q0 68 48 117 49 48 117 48h548q68 0 116-48 49-49 49-117v0z" />
<glyph unicode="&#xf093;" glyph-name="uniF093" horiz-adv-x="951" d="M951 274v-330q0-7-6-12-5-6-12-6h-915q-7 0-13 6-5 5-5 12v330q0 7 5 12 6 6 13 6h110q7 0 13-6 5-5 5-12v-202h659v202q0 7 5 12 5 6 13 6h110q7 0 12-6 6-5 6-12v0zM768 475q0-15-11-26t-26-11h-146v-256q0-15-11-26-11-10-25-10h-147q-15 0-25 10-11 11-11 26v256h-147q-14 0-25 11t-11 26 11 25l256 256q11 11 25 11 15 0 26-11l256-256q11-10 11-25v0z" />
<glyph unicode="&#xf094;" glyph-name="uniF094" d="M804 405q0 25-4 65t-10 55q-7 17-10 25t-5 21-2 28q0 13 2 39 3 26 3 38 0 22-5 32h-8q-11 0-33-2-22-3-34-3-34 0-100 14-67 14-100 14-25 0-54-7-30-6-49-13t-51-20q-78-31-115-59-55-41-92-108-36-66-50-135-14-68-14-142 0-23 7-68 7-46 7-69 0-14-6-38-6-25-6-38 0-12 7-21 7-8 19-8 14 0 42 6 27 7 42 7 32 0 96-9 65-9 97-9 104 0 163 20 73 26 134 88 61 61 95 140t34 157v0zM877 406q0-94-40-187t-112-165q-72-71-160-103-71-25-187-25-32 0-97 8-64 9-96 9-14 0-42-9-28-8-42-8-42 0-70 32-29 32-29 73 0 14 6 39t6 38q0 23-7 69t-7 70q0 63 10 124 11 61 31 120 21 59 58 111 36 52 86 89 44 33 132 68 111 45 181 45 34 0 100-14t99-14q11 0 33 3 21 3 33 3 46 0 67-29t21-77q0-13-2-38-3-26-3-39v-11l2-10q1-4 2-7t4-9q3-7 4-10 9-23 14-68t5-78v0z" />
<glyph unicode="&#xf095;" glyph-name="uniF095" horiz-adv-x="805" d="M805 168q0-15-6-40t-12-39q-12-29-70-61-54-29-106-29-16 0-30 2-15 2-33 7l-27 9t-32 11q-23 9-28 11-56 20-100 47-73 45-151 123t-123 151q-28 44-48 100-1 6-10 28-8 23-12 32-3 9-8 27-5 19-7 33-2 15-2 30 0 53 29 106 32 58 61 70 14 6 39 12t40 6q8 0 12-2 10-3 30-43 7-11 18-31 10-20 20-36 9-17 17-31 2-2 10-14 9-12 13-21 4-8 4-16 0-11-17-28-16-18-35-32t-36-30q-16-16-16-26 0-6 3-13 3-8 5-12t8-14q6-9 6-11 44-78 100-134t134-99q1-1 11-7t14-8 11-5q8-3 13-3 11 0 27 17 16 16 30 35t31 36q17 16 29 16 8 0 16-4t20-12q12-9 15-10 14-9 30-18 17-9 37-20t30-17q40-20 44-31 2-4 2-12v0z" />
<glyph unicode="&#xf096;" glyph-name="uniF096" horiz-adv-x="951" d="M640 731h-475q-38 0-65-27t-27-65v-475q0-38 27-65t65-27h475q38 0 65 27 26 27 26 65v475q0 38-26 65-27 27-65 27v0zM805 639v-475q0-68-49-116-48-49-116-49h-475q-68 0-117 49-48 48-48 116v475q0 68 48 117 49 48 117 48h475q68 0 116-48 49-49 49-117v0z" />
<glyph unicode="&#xf097;" glyph-name="uniF097" horiz-adv-x="731" d="M658 731h-585v-710l293 281 51-49 241-232v710zM665 804q13 0 25-5 19-8 30-24t11-35v-737q0-19-11-35t-30-24q-11-4-25-4-27 0-47 18l-252 242-252-242q-21-19-48-19-13 0-25 5-19 8-30 24t-11 35v737q0 19 11 35t30 24q12 5 25 5h599z" />
<glyph unicode="&#xf098;" glyph-name="uniF098" d="M731 195q0 7-1 9-1 5-22 17-20 13-50 29l-31 16q-2 2-10 8-8 5-15 8-6 3-12 3-10 0-27-19-16-18-32-37t-25-19q-4 0-10 2-5 2-9 4-3 2-9 5-7 4-8 5-57 32-98 72-41 41-72 98-1 2-5 8t-5 10q-2 3-4 8-2 6-2 10 0 7 12 19 11 12 25 22t26 23q12 12 12 20 0 6-3 12-3 7-9 15-5 8-7 11t-9 16q-6 13-14 26-7 13-15 27t-14 23q-7 9-10 10-3 2-9 2-27 0-58-13-26-12-45-54-20-42-20-75 0-9 2-19 1-10 3-17 1-8 5-19 3-12 5-17t8-19q5-14 6-17 34-94 124-183 89-90 183-124 3-1 17-6t19-7 17-6q11-4 18-5 8-2 18-3 10-2 19-2 33 0 75 20 42 19 54 46 12 30 12 57v0zM878 639v-548q0-68-49-117-48-48-116-48h-548q-68 0-117 48-48 49-48 117v548q0 68 48 117 49 48 117 48h548q68 0 116-48 49-49 49-117v0z" />
<glyph unicode="&#xf099;" glyph-name="uniF099" horiz-adv-x="1097" d="M1071 686q0-6-2-10-37-60-103-109v-19q3-129-57-261-76-169-227-265t-338-96q-151 0-286 70-36 19-49 28-9 7-9 16 0 7 5 13 6 5 13 5 8 0 25-1 18-2 26-2 117 0 214 61-58 14-103 55t-63 99q-2 4-2 6 0 7 6 12 5 6 12 6 3 0 8-2 5-1 7-1-51 32-81 84-30 53-30 112 0 9 6 15 7 6 16 6 6 0 20-7 14-6 17-7-53 62-53 146 0 29 9 62 8 32 23 54 6 9 14 9 9 0 16-7 43-48 62-66 71-63 158-101 88-38 181-46-2 12-2 28 0 95 68 163 67 68 163 68 93 0 161-65 54 11 119 47 5 2 10 2 7 0 12-5 6-5 6-13 0-14-16-42t-29-43q4 1 17 6t24 9q12 4 14 4 8 0 13-5t5-13v0z" />
<glyph unicode="&#xf09a;" glyph-name="uniF09A" horiz-adv-x="439" d="M320 642q-28 0-35-9-8-9-8-38v-50h124q9 0 16-7 6-7 5-16l-8-115q-1-8-7-14t-14-6h-116v-439q0-9-6-16-6-6-15-6h-143q-9 0-15 6-7 7-7 16v439h-69q-9 0-16 6-6 7-6 16v114q0 9 6 16 7 6 16 6h69v59q0 101 51 150 50 50 152 50 69 0 129-17 8-3 12-9 5-7 4-15l-16-112q-1-9-9-15-8-5-17-3-43 9-77 9v0z" />
<glyph unicode="&#xf09b;" glyph-name="uniF09B" d="M805 365q0 74-30 142-29 68-78 117-48 48-116 78-68 29-142 29t-142-29q-68-30-117-78-49-49-78-117t-29-142q0-119 71-216t185-133v97q-31-4-39-4-63 0-88 57-8 22-20 36-3 4-12 11t-17 14q-7 6-7 9 0 7 16 7 17 0 30-9 13-8 21-20 9-11 18-23 10-12 24-21 14-8 32-8 24 0 46 8 9 33 36 51-95 9-140 48-46 38-46 128 0 67 42 113-8 24-8 48 0 33 15 62 33 0 58-11t57-34q44 10 97 10 46 0 87-9 33 23 58 34 25 10 57 10 15-29 15-62 0-24-8-47 42-47 42-114 0-90-46-129t-140-48q40-26 40-74v-130q113 36 184 133 72 97 72 216v0zM878 365q0-119-59-220t-160-160-220-59q-120 0-220 59-101 59-160 160t-59 220 59 220 160 160q100 59 220 59 119 0 220-59t160-160 59-220v0z" />
<glyph unicode="&#xf09c;" glyph-name="uniF09C" horiz-adv-x="951" d="M402 91q0 3-8 32-9 29-20 66-12 37-12 38 19 9 29 27 11 17 11 38 0 30-21 52-22 21-52 21t-52-21q-21-22-21-52 0-21 11-38 11-18 29-27 0-1-11-38-12-37-20-66-9-29-9-32 0-8 5-13 6-6 13-6h110q7 0 13 6 5 5 5 13v0zM951 548v-146q0-15-11-26t-26-11h-36q-15 0-26 11t-11 26v146q0 60-43 103t-103 43q-61 0-104-43-42-43-42-103v-110h54q23 0 39-16t16-39v-329q0-23-16-39t-39-16h-548q-23 0-39 16t-16 39v329q0 23 16 39t39 16h384v110q0 106 75 181t181 75 181-75 75-181v0z" />
<glyph unicode="&#xf09d;" glyph-name="uniF09D" horiz-adv-x="1097" d="M1006 804q37 0 64-27t27-65v-694q0-38-27-65t-64-27h-915q-37 0-64 27t-27 65v694q0 38 27 65t64 27h915zM91 731q-7 0-12-6-6-5-6-13v-128h951v128q0 8-5 13-6 6-13 6h-915zM1006-1q7 0 13 6 5 5 5 13v347h-951v-347q0-8 6-13 5-6 12-6h915zM146 72v74h147v-74h-147zM366 72v74h219v-74h-219z" />
<glyph unicode="&#xf09e;" glyph-name="uniF09E" horiz-adv-x="805" d="M219 109q0-46-32-78t-77-32q-46 0-78 32t-32 78 32 78 78 32q45 0 77-32t32-78zM512 39q1-16-10-28-10-12-27-12h-77q-14 0-24 10-11 9-12 23-12 131-105 224t-224 106q-14 1-24 11-9 10-9 25v77q0 16 12 27 10 9 25 9h2q92-7 175-46 84-38 148-103 65-65 104-148 39-84 46-175v0zM805 38q1-16-11-27-10-12-26-12h-82q-15 0-25 10-11 10-11 25-7 122-58 233t-132 192q-82 81-192 132-111 51-234 59-14 0-24 11-10 10-10 25v81q0 16 11 27 11 10 26 10h1q150-8 287-69t243-168q107-106 168-243t69-286v0z" />
<glyph unicode="&#xf0a0;" glyph-name="uniF0A0" d="M594 182q0-19-13-32-14-14-32-14-19 0-33 14-13 13-13 32t13 32q14 14 33 14 18 0 32-14 13-13 13-32zM741 182q0-19-14-32-13-14-32-14t-32 14q-14 13-14 32t14 32q13 14 32 14t32-14q14-13 14-32zM805 91v183q0 7-6 12-5 6-13 6h-695q-7 0-12-6-6-5-6-12v-183q0-8 6-13 5-6 12-6h695q8 0 13 6 6 5 6 13zM102 365h674l-90 275q-2 8-9 13t-15 5h-447q-8 0-14-5-7-5-10-13zM878 274v-183q0-38-27-65t-65-27h-695q-37 0-64 27t-27 65v183q0 14 9 42l113 347q9 30 36 49 26 19 57 19h447q32 0 58-19t36-49l113-347q9-28 9-42z" />
<glyph unicode="&#xf0a1;" glyph-name="uniF0A1" d="M951 511q30 0 52-21 21-22 21-52t-21-52q-22-21-52-21v-219q0-30-22-52t-51-22q-239 199-464 218-33-11-52-38t-18-58q1-30 23-52-12-19-13-38-2-18 3-33t19-31q14-17 28-29 13-12 35-29-17-33-64-47-47-15-96-7t-76 32q-4 13-16 50-13 37-19 54-5 17-13 51-8 33-8 57-1 24 2 57 2 32 12 63h-70q-37 0-64 27t-27 64v110q0 38 27 65 27 26 64 26h275q248 0 512 220 29 0 51-22t22-51v-220zM878 166v545q-225-172-439-196v-154q215-24 439-195z" />
<glyph unicode="&#xf0a2;" glyph-name="uniF0A2" horiz-adv-x="951" d="M485-92q0 9-10 9-33 0-58 24-24 25-24 58 0 9-9 9t-9-9q0-41 29-71 30-29 71-29 10 0 10 9v0zM105 72h741q-93 104-141 236-47 131-47 276 0 147-183 147-182 0-182-147 0-145-48-276-47-132-140-236v0zM951 72q0-29-22-51t-51-22h-256q0-60-43-103t-104-43q-60 0-103 43t-43 103h-256q-30 0-51 22-22 22-22 51 109 92 164 228 55 135 55 284 0 95 55 150 55 56 151 67-4 10-4 21 0 23 16 39t38 16q23 0 39-16t16-39q0-11-4-21 96-11 151-67 54-55 54-150 0-149 56-284 55-136 164-228z" />
<glyph unicode="&#xf0a3;" glyph-name="uniF0A3" d="M786 365l79-77q17-16 12-40-7-24-30-29l-108-28 31-106q7-23-11-40-17-18-40-11l-106 30-28-107q-6-23-29-30-7-1-11-1-18 0-29 13l-77 79-77-79q-16-17-40-12-24 7-29 30l-28 107-106-30q-24-7-40 11-18 17-11 40l30 106-107 28q-23 5-30 29-6 24 12 40l78 77-78 77q-18 16-12 40 7 24 30 29l107 28-30 106q-7 23 11 40 16 18 40 11l106-30 28 107q5 23 29 29 23 7 40-11l77-79 77 79q17 17 40 11t29-29l28-107 106 30q23 7 40-11 18-17 11-40l-31-106 108-28q23-5 30-29 5-24-12-40z" />
<glyph unicode="&#xf0a4;" glyph-name="uniF0A4" d="M146 109q0 15-11 26-10 11-25 11t-26-11-11-26 11-26 26-11 25 11q11 11 11 26zM951 438q0 29-22 51-23 22-51 22h-329q0 12 8 28 9 16 19 31 10 16 19 39 8 24 8 49 0 38-25 55-25 18-66 18-14 0-51-80-14-25-22-37-22-36-64-83-40-46-57-60-40-33-80-33h-19v-366h19q41 0 95-18t111-36q56-19 102-19 108 0 108 96 0 15-3 32 18 9 28 30t10 42-11 39q31 29 31 68 0 14-6 32-6 17-14 27h189q29 0 51 22 22 21 22 51v0zM1024 439q0-60-43-104-43-43-103-43h-97q-2-36-21-68 2-12 2-25 0-57-35-101 1-80-48-126t-130-46q-76 0-184 40-94 33-127 33h-165q-30 0-52 22-21 21-21 51v366q0 30 21 52 22 21 52 21h165q5 0 12 3 7 2 13 8 7 5 13 10t14 13l12 12q4 5 11 13 6 8 8 9 37 43 57 74 7 12 19 35 11 24 21 42 9 17 23 36 13 18 31 28t40 10q71 0 118-38 47-39 47-108 0-39-13-74h214q59 0 103-43 43-43 43-102v0z" />
<glyph unicode="&#xf0a5;" glyph-name="uniF0A5" d="M786 72h19v366h-19q-20 0-38 7-18 6-37 22-18 15-27 25t-29 31q-1 2-2 3 0 1-2 2-1 2-2 3-42 47-64 83-8 13-22 39-1 2-6 13-6 11-11 20-5 10-11 21t-12 17q-6 7-11 7-41 0-66-18-25-17-25-55 0-25 8-49 9-23 19-39 10-15 19-31 8-16 8-28h-329q-28 0-51-22-22-22-22-51 0-30 22-51 22-22 51-22h189q-8-10-14-27-6-18-6-32 0-39 31-68-11-18-11-39t10-42 28-30q-3-14-3-32 0-49 28-72 28-24 77-24 48 0 105 19 57 18 111 36t95 18v0zM951 109q0 15-11 26t-26 11-25-11q-11-11-11-26t11-26q10-11 25-11t26 11 11 26zM1024 438v-366q0-30-21-51-22-22-52-22h-165q-33 0-127-33-109-40-181-40-81 0-132 44-50 45-49 125v3q-35 43-35 101 0 13 2 25-19 32-21 68h-97q-60 0-103 43-43 44-43 104 0 59 43 102 44 43 103 43h214q-13 35-13 74 0 69 47 108 47 38 118 38 22 0 40-10t31-28q14-19 23-36 10-18 21-42 12-23 19-35 20-31 57-74 2-1 8-9 7-8 11-13l12-12t14-13 13-10q6-6 13-8 7-3 12-3h165q30 0 52-21 21-22 21-52v0z" />
<glyph unicode="&#xf0a6;" glyph-name="uniF0A6" d="M731-37q0 15-10 25-11 11-26 11t-26-11q-11-10-11-25t11-26 26-11 26 11q10 11 10 26v0zM805 399q0 108-96 108-15 0-32-3-9 18-30 28t-42 10-39-11q-29 31-68 31-15 0-32-6t-27-14v189q0 29-22 51t-51 22-51-22q-22-23-22-51v-329q-12 0-28 8-16 9-32 19-15 10-38 19-24 8-49 8-38 0-55-25-18-25-18-66 0-14 80-51 25-14 37-22 36-22 83-64 46-40 60-57 33-40 33-80v-19h365v19q0 41 19 95 18 54 36 111 19 56 19 102v0zM878 402q0-76-40-184-33-94-33-127v-165q0-30-22-52-21-21-52-21h-365q-31 0-52 21-21 22-21 52v165q0 5-3 12t-8 13q-5 7-10 13t-13 14l-12 12q-5 4-13 11-8 6-9 8-43 37-74 57-12 7-36 19-23 11-41 21-17 9-36 23-18 13-28 31t-10 40q0 71 38 118 39 47 108 47 39 0 73-13v214q0 59 44 103 43 43 102 43 60 0 104-43 43-43 43-103v-97q35-2 68-21 12 2 25 2 57 0 101-35 80 1 126-48t46-130v0z" />
<glyph unicode="&#xf0a7;" glyph-name="uniF0A7" d="M805 328q0 48-19 105-18 57-36 111-19 54-19 95v19h-365v-19q0-26-15-52-14-25-29-41-16-15-41-38-6-4-8-6-47-42-83-64-13-8-39-22-2-1-13-6-11-6-21-11-9-5-20-11t-17-12q-7-6-7-11 0-41 18-66 17-25 55-25 25 0 49 8 23 9 38 19 16 10 32 19 16 8 28 8v-329q0-28 22-51 22-22 51-22t51 22 22 51v189q26-20 59-20 39 0 68 31 18-11 39-11t42 10 30 28q14-3 32-3 49 0 72 28 24 28 24 77v0zM731 767q0 15-10 26-11 11-26 11t-26-11-11-26 11-25q11-11 26-11t26 11q10 10 10 25v0zM878 331q0-81-45-132-44-50-124-49h-3q-43-35-101-35-13 0-25 2-31-17-68-21v-97q0-60-43-103-44-43-104-43-59 0-102 43-44 44-44 103v214q-30-13-73-13-69 0-107 47-39 47-39 118 0 22 10 40t28 31q19 14 36 23 18 10 41 21 24 12 36 19 31 20 74 57 1 2 9 8 8 7 13 11l12 12t13 14 10 13q5 6 8 13t3 12v165q0 30 21 52 21 21 52 21h365q31 0 52-21 22-22 22-52v-165q0-33 33-127 40-109 40-181v0z" />
<glyph unicode="&#xf0a8;" glyph-name="uniF0A8" d="M731 328v74q0 14-10 25-11 11-26 11h-287l108 108q11 11 11 26t-11 26l-52 52q-10 10-26 10-15 0-25-10l-259-259q-11-11-11-26t11-26l259-259q10-10 25-10 16 0 26 10l52 52q10 11 10 26 0 16-10 26l-108 108h287q15 0 26 11 10 11 10 25v0zM878 365q0-119-59-220t-160-160-220-59q-120 0-220 59-101 59-160 160t-59 220 59 220 160 160q100 59 220 59 119 0 220-59t160-160 59-220v0z" />
<glyph unicode="&#xf0a9;" glyph-name="uniF0A9" d="M734 365q0 15-10 26l-259 259q-10 10-26 10-15 0-25-10l-52-52q-11-11-11-26 0-16 11-26l108-108h-287q-15 0-26-11t-11-25v-74q0-14 11-25t26-11h287l-108-108q-11-11-11-26t11-26l52-52q10-10 25-10 16 0 26 10l259 259q10 11 10 26v0zM878 365q0-119-59-220t-160-160-220-59q-120 0-220 59-101 59-160 160t-59 220 59 220 160 160q100 59 220 59 119 0 220-59t160-160 59-220v0z" />
<glyph unicode="&#xf0aa;" glyph-name="uniF0AA" d="M734 366q0 15-11 25l-258 259q-11 10-26 10-16 0-26-10l-259-259q-10-10-10-25 0-16 10-26l52-52q11-10 26-10t26 10l108 108v-287q0-15 11-26 10-11 25-11h73q15 0 26 11t11 26v287l108-108q11-11 26-11t25 11l52 52q11 10 11 26v0zM878 365q0-119-59-220t-160-160-220-59q-120 0-220 59-101 59-160 160t-59 220 59 220 160 160q100 59 220 59 119 0 220-59t160-160 59-220v0z" />
<glyph unicode="&#xf0ab;" glyph-name="uniF0AB" d="M734 364q0 16-11 26l-52 52q-10 10-25 10-16 0-26-10l-108-108v287q0 15-11 26t-26 11h-73q-15 0-25-11-11-11-11-26v-287l-108 108q-11 11-26 11t-26-11l-52-52q-10-10-10-26 0-15 10-25l259-259q10-10 26-10 15 0 26 10l258 259q11 10 11 25v0zM878 365q0-119-59-220t-160-160-220-59q-120 0-220 59-101 59-160 160t-59 220 59 220 160 160q100 59 220 59 119 0 220-59t160-160 59-220v0z" />
<glyph unicode="&#xf0ac;" glyph-name="uniF0AC" d="M682 567q6 4 14 12v0q0-1-5-6-6-5-7-7-1 1-2 1zM678 566q0 1-1 2t-1 2q2-2 6-3-4-3-4-1v0zM416 671q-9 1-15 3 1 0 4-1t6-1q3-1 5-1zM442 692q4 2 7 1 4-1 5-4-3 2-12 3zM437 688l-2 2q-1 1-3 2l-2 2q1-1 12-2-4-2-5-4v0zM379 736v2q0-2 2-4 1-2 1-3zM319 714q0-2-1-2v2h1zM439 804q119 0 220-59t160-160 59-220-59-220-160-160-220-59q-120 0-220 59-101 59-160 160t-59 220 59 220 160 160q100 59 220 59zM709 92l2 3q-4 5-16 7 0 6-8 15-9 8-16 9 0 2-6 6t-10 4q-5 2-15-5-4-1-2-3l-7 7q-5 4-9 6-1 1-5 1-3 0-4 1-1 0-4 2t-4 3q-1 0-4 2-2 1-4 0-2 0-4-1-3-1-5-3-2-3-3-9 0-7-1-9-5 4 0 12 4 8 1 11-4 4-12 1-8-4-12-9-1-1-6-3-5-3-6-5-3-3-6-10-2-6-3-7 0 1-1 3-2 3-2 4-7-1-9 2 3-9 5-10l-3 1q0-3 2-8 2-6 2-7 1-3-1-7-1-5-1-6 0-2 3-7 2-11-1-18 0-1-2-4l-4-6-1-3h-1q-1 1-1 0-1-3-6-7-4-4-5-6-9-13-5-22 1-5 5-6 2 0 2 1 1-5-6-15 0-1 2-2-10 0-6-8 116 21 201 104h-1zM389 198q9 1 17-10 8-10 13-13 23-11 34-6 0-5 8-16 1-2 3-7l3-6q3-4 11-9t11-9q4 2 5 5 8-20 14-19 3 0 5 4l-1-1q0-1-1-2 4 9 3 15l4 2q3 2 3 3-4 3-6-2-17-8-27 13-1 2-3 4-1 3-2 7-2 4-1 7 0 2 3 2 6 0 7 1t-1 4q-2 2-2 4-1 2-1 7-1 5-1 7l-3 4-7 7q-3 5-4 6-2-6-9-5t-11 5q1-1 0-3-1-3-1-4-8 0-10 1 1 3 2 12 1 8 2 12 1 3 3 8 3 5 5 9t3 8q0 4-3 6t-11 1q-11 0-16-12-1-2-2-7t-3-7q-1-2-5-4t-15-1q-11 0-15 3-8 4-14 17t-6 24q0 5 2 15 1 10 1 16 0 5-3 15 2 1 6 6t6 7q1 1 3 1h3l2 1q2 1 2 3-1 1-3 2-1 2-2 2 2-2 11-1 8 1 11 1 0 1 12 0 10-7 14 1 0 1-1 6-2 6-1 9 3-17 19-6 1-2 9-3 8-2 11-3 1-1 4-3l3-3t3-1q3 1 6 4 6-9 7-14 6-24 11-27 5-1 8-1 2 0 2 6 1 6 0 8v8l-2 21q-9 2-11 7-2 6 1 12t9 11q1 0 10 4t12 7q14 11 10 22 5-1 6 6l-3 1q-2 2-4 3-3 2-3 1 6 4 1 11 3 1 4 6 2 5 6 7 5-8 12-2 5 5 1 10 3 5 13 7t11 5h4q1 1 1 3v4l1 5q1 5 2 4 2 4 9 6 7 3 8 3l11 7q2 3 0 3 10-2 18 6 7 7-3 13 1 4-2 6-4 2-9 3 1 1 7 0 5 0 6 1 9 7-4 10-11 3-26-7-2-2-8-7-6-6-10-7 9 11 3 13 5-1 13 5t9 6q2 2 6 2t5 1q40 14 52-1 5 6 7 9 1 2 5 5t9 4q12 4 13 6l1 13q-7-1-11 4-3 5-4 13l-3-5q0 4-2 5h-4q-3-1-6-1-3-1-4 0-5 1-11 9-6 7-8 9 5 0 5 3-1 3-6 4 1 4-1 5t-5 0l-1 7q-3 1-6 7-3 5-5 5-1 0-2-1-2-1-3-3l-3-4-2-3-1-1q-7 3-14-6-5 1-10-1 9 3 2 7-7 3-12 2 6 2 5 8-1 5-7 9 1 0 3-1h2q-1 2-5 5-5 3-12 5l-8 4q-4 3-20 6-17 3-21 1-3-2-3-4-1-1 1-5 1-3 2-4 3-14 3-16-1-2-5-4-5-3-3-7 0-3 6-6t7-7q3-7-2-14-2-3-9-6-6-4-8-6-2-3-2-7 1-3 1-5v1t1 2q0-8 6-13 5-3-9-10-11-6-11-2t-5 9q-5 4-6 7-1 2-2 10-1 9-5 12t-11 3-10-3q0 6-28 17-10 5-33 2 4 1 0 10-5 9-12 7-5 14-3 20 1 3 5 8t6 8q0 2 8 4 9 2 10 4 0 3-2 4-2 2-5 3 30-4 36 10 3 5 2 8 0-1 1-1h1q7 2 4 10 11 4 15 4 3 0 6-3 4-3 6-3 10-2 12 6 3 7-5 13 4-3 4 3-1 8-4 11-2 1-4 1-2 1-4 0-1 0-4 1l-4 1-1-1h-5q-2-1-2-3v0q-1-2 2-4h3l2-1q-1 0-2-2l-1-1q0-2 1-3-1-1-8-4l-9-6q-1-1-3-2-1-1-2-1-1-1-2 1t-2 5q-2 4-3 7t-2 5q-2 3-3 3-7 0-11-10 2 6-7 10-9 5-14 5 11 8-6 17v0q-17-2-26-4-1-3 2-7-1-4 3-5v0q2 0 6-1h6l2-2 5-2 3-4q3-3-2-3-1 0-5-2t-7-3q-3-2-4-2-1-3 0-9 2-7-1-9-3 3-6 11-2 7-4 10 4-5-17-4l-5 1q-2 0-8-1-7-1-10-1-4 0-16 4 4 9 3 14 3 0 4 1l-4 2q-1-1-14-5 1-2 5-6 3-4 5-6-13 3-16-2h-5q-14 1-14-4 1-2 6-6 0-6-1-6-15 13-17 14-98-48-158-142 1-1 2-6 0-6 2-5 1 0 6 2 5-5 2-12 1 1 20-12 32-23 13-30v7q-5-1-11 3-1-4 1-12t6-8q-4 0-6-9-1-10-1-22 0-13-1-15l1-1q-1-7 4-21t14-12q-3-10 2-12v-4q1-3 3-5 2-3 3-4l8-8q16-6 24-16 2-4 6-14 3-11 8-15-1-3 6-12t6-15h-2q1-5 9-10 8-4 9-8 2-1 2-6 0-4 2-6 1-3 4-2 2 14-14 39-10 15-11 18l-3 9q-1 7-2 9 15-5 14-7-2-6 15-30 1-2 6-6t6-7q2-2 6-8 3-6 6-9-1 0-2-1l-2-2q3-1 5-3 3-1 5-2t4-3q3-2 5-4 9-11 11-19 1-2 0-9 0-7 1-9 1-4 4-7 2-3 6-5 4-3 7-4 2-2 8-4 6-3 7-3 1-1 10-7 9-5 14-8 6-2 10-2 3 0 9 1 5 2 9 3v0z" />
<glyph unicode="&#xf0ad;" glyph-name="uniF0AD" horiz-adv-x="951" d="M219 36q0 15-10 26-11 10-26 10t-26-10q-11-11-11-26t11-26 26-11 26 11q10 11 10 26zM587 276l-389-390q-21-21-52-21-29 0-52 21l-60 62q-22 20-22 51t22 52l389 389q22-56 65-99t99-65v0zM950 524q0-22-13-60-27-77-94-124-68-48-148-48-106 0-181 75t-75 181 75 181 181 75q33 0 69-10 37-9 62-26 9-6 9-16t-9-16l-168-97v-128l111-61q2 2 45 28 42 26 77 46t40 20q9 0 14-5 5-6 5-15v0z" />
<glyph unicode="&#xf0ae;" glyph-name="uniF0AE" d="M585 72h366v74h-366v-74zM366 365h585v73h-585v-73zM731 658h220v73h-220v-73zM1024 182v-146q0-15-11-26t-26-11h-950q-15 0-26 11t-11 26v146q0 15 11 26t26 11h950q15 0 26-11t11-26zM1024 475v-147q0-14-11-25t-26-11h-950q-15 0-26 11t-11 25v147q0 15 11 25 11 11 26 11h950q15 0 26-11 11-10 11-25v0zM1024 767v-146q0-15-11-26t-26-11h-950q-15 0-26 11t-11 26v146q0 15 11 26t26 11h950q15 0 26-11t11-26z" />
<glyph unicode="&#xf0b0;" glyph-name="uniF0B0" horiz-adv-x="805" d="M802 708q9-23-8-40l-282-281v-424q0-24-22-34-8-3-15-3-15 0-25 11l-147 146q-10 11-10 26v278l-282 281q-18 17-8 40t34 23h731q24 0 34-23v0z" />
<glyph unicode="&#xf0b1;" glyph-name="uniF0B1" d="M366 658h292v73h-292v-73zM1024 292v-274q0-38-27-65t-64-27h-842q-37 0-64 27t-27 65v274h384v-92q0-14 11-25t26-11h182q15 0 26 11t11 25v92h384zM585 292v-73h-146v73h146zM1024 566v-219h-1024v219q0 38 27 65t64 27h202v91q0 23 16 39t38 16h330q22 0 38-16t16-39v-91h202q37 0 64-27t27-65v0z" />
<glyph unicode="&#xf0b2;" glyph-name="uniF0B2" d="M733 568l-203-203 203-203 82 82q17 18 40 8 23-9 23-33v-256q0-15-11-26t-26-11h-256q-24 0-34 23-9 22 8 39l83 83-203 203-203-203 82-83q18-17 8-39-9-23-33-23h-256q-15 0-26 11t-11 26v256q0 24 23 33 22 10 39-8l83-82 202 203-202 203-83-82q-11-11-25-11-7 0-14 3-23 9-23 33v256q0 15 11 26t26 11h256q24 0 33-23 10-22-8-39l-82-83 203-203 203 203-83 83q-17 17-8 39 10 23 34 23h256q15 0 26-11t11-26v-256q0-24-23-33-7-3-14-3-15 0-26 11z" />
<glyph unicode="&#xf0c0;" glyph-name="uniF0C0" horiz-adv-x="1097" d="M339 365q-93-3-152-73h-76q-47 0-79 23t-32 68q0 201 71 201 3 0 25-12 21-12 55-24 35-12 68-12 39 0 76 13-2-21-2-38 0-79 46-146v0zM951 1q0-69-42-108-42-40-111-40h-499q-69 0-111 40-42 39-42 108 0 30 2 59t8 62q6 34 15 62 10 29 25 56t35 46q20 20 49 31t64 11q6 0 25-12 18-12 41-27t61-28q39-12 78-12 38 0 77 12 38 13 61 28t42 27q18 12 24 12 35 0 64-11t49-31q20-19 35-46 16-27 25-56 9-28 15-62 6-33 8-62t2-59v0zM366 731q0-61-43-104t-104-43q-60 0-103 43t-43 104q0 60 43 103t103 43q61 0 104-43t43-103v0zM768 511q0-91-64-155-65-64-155-64-91 0-156 64-64 64-64 155t64 155q65 65 156 65 90 0 155-65 64-64 64-155v0zM1097 383q0-45-32-68t-79-23h-76q-59 70-152 73 47 67 47 146 0 17-3 38 37-13 76-13 33 0 68 12 34 12 55 24 22 12 25 12 71 0 71-201v0zM1024 731q0-61-43-104t-103-43q-61 0-104 43t-43 104q0 60 43 103t104 43q60 0 103-43t43-103z" />
<glyph unicode="&#xf0c1;" glyph-name="uniF0C1" horiz-adv-x="951" d="M832 182q0 23-16 39l-119 119q-16 16-39 16-24 0-41-18l23-23q3-4 9-11 5-8 7-15t2-15q0-23-16-39t-39-16q-8 0-15 2t-15 7q-7 6-11 9l-23 23q-18-18-18-42 0-23 16-39l117-118q16-15 39-15t39 14l84 84q16 16 16 38v0zM430 585q0 23-16 39l-117 118q-16 16-39 16t-39-15l-84-84q-16-16-16-38 0-23 16-39l119-119q15-15 39-15t41 18q-2 1-11 10l-12 12q-4 4-9 11-5 8-7 15t-2 16q0 22 16 38t38 16q9 0 16-2t15-7q7-5 11-9l12-12t10-11q19 18 19 42v0zM942 182q0-68-49-116l-84-83q-47-48-116-48t-116 49l-118 118q-48 48-48 116 0 70 51 120l-51 50q-49-50-118-50t-117 48l-119 118q-48 48-48 117t49 116l84 83q47 48 116 48t116-49l118-118q47-47 47-116 0-70-50-119l50-51q50 51 119 51t117-48l119-119q48-48 48-117z" />
<glyph unicode="&#xf0c2;" glyph-name="uniF0C2" horiz-adv-x="1097" d="M1097 219q0-91-64-155-64-65-155-65h-622q-106 0-181 75-75 76-75 181 0 76 41 138 40 63 106 94-1 16-1 24 0 121 86 207t207 86q90 0 164-50 73-51 107-132 40 36 95 36 60 0 103-43t43-104q0-43-24-79 74-17 122-76 48-60 48-137v0z" />
<glyph unicode="&#xf0c3;" glyph-name="uniF0C3" horiz-adv-x="951" d="M873 50q32-51 12-88-20-36-80-36h-659q-60 0-80 36-20 37 12 88l288 453v228h-37q-15 0-26 11-10 10-10 25t10 26q11 11 26 11h293q15 0 25-11 11-11 11-26t-11-25q-10-11-25-11h-37v-228zM427 464l-155-245h407l-156 245-11 18v249h-73v-249z" />
<glyph unicode="&#xf0c4;" glyph-name="uniF0C4" d="M549 365q14 0 25-11t11-26q0-14-11-25t-25-11q-15 0-26 11t-11 25q0 15 11 26t26 11v0zM720 328l290-227q16-11 14-32-3-20-20-29l-73-37q-8-4-17-4t-17 5l-395 221-63-38-6-3q8-28 5-55-4-44-32-84-28-41-75-71-76-48-158-48-78 0-127 45-52 48-45 118 4 43 32 84t74 71q76 48 159 48 48 0 87-18 5 8 12 13l70 41-70 42q-7 5-12 13-39-18-87-18-83 0-159 48-46 30-74 71-28 40-32 84-3 34 8 64 12 31 37 54 48 45 127 45 82 0 158-48 47-30 75-71 28-40 32-84 3-28-5-56 2 0 6-2l63-38 395 221q8 5 17 5t17-4l73-37q17-9 20-29 2-21-14-32zM331 477q26 24 12 62-14 37-61 67-52 33-109 33-43 0-65-20-26-24-12-62t61-67q52-34 109-34 43 0 65 21v0zM282 51q47 29 61 67t-12 62q-22 20-65 20-57 0-109-33-47-29-61-67t12-62q22-20 65-20 57 0 109 33v0zM384 402l55-34v7q0 20 19 32l8 4-45 27-15-15q-2-1-6-6t-7-7l-2-2t-2-1zM512 274l55-19 420 329-73 37-439-246v-65l-91-55 5-4 4-4q2-2 6-7 4-4 7-6l15-15zM914 36l73 36-297 234-101-79q-1-2-7-4z" />
<glyph unicode="&#xf0c5;" glyph-name="uniF0C5" d="M969 658q23 0 39-16t16-39v-695q0-23-16-39t-39-16h-548q-23 0-39 16t-16 39v164h-311q-23 0-39 16t-16 39v384q0 23 11 51 12 27 28 43l233 233q16 16 43 28 28 11 51 11h237q23 0 39-16t16-39v-187q39 23 73 23h238zM658 536l-171-171h171v171zM293 755l-171-171h171v171zM405 386l180 180v238h-219v-238q0-23-16-39t-39-16h-238v-365h293v146q0 23 11 50 12 28 28 44v0zM951-74v658h-220v-237q0-23-16-39t-38-16h-238v-366h512z" />
<glyph unicode="&#xf0c6;" glyph-name="uniF0C6" horiz-adv-x="805" d="M802 86q0-67-45-112-45-46-112-46-77 0-134 58l-444 443q-65 66-65 155 0 91 63 154 63 64 154 64 90 0 156-65l346-346q5-6 5-13 0-9-17-26-18-18-27-18-7 0-13 6l-346 347q-45 44-104 44-60 0-102-43t-42-104q0-60 44-103l443-444q36-36 83-36 37 0 61 24t24 61q0 46-36 82l-332 332q-15 14-35 14-16 0-27-11t-11-27q0-18 14-34l235-234q5-6 5-13 0-9-17-27-18-17-27-17-7 0-13 5l-234 235q-36 35-36 85 0 47 33 79 32 33 79 33 50 0 85-36l332-332q57-56 57-134v0z" />
<glyph unicode="&#xf0c7;" glyph-name="uniF0C7" d="M219-1h439v220h-439v-220zM731-1h74v512q0 8-6 22t-12 20l-160 161q-6 5-20 11-13 6-22 6v-238q0-23-16-39t-39-16h-329q-23 0-39 16t-16 39v238h-73v-732h73v238q0 23 16 39t39 16h476q22 0 38-16t16-39v-238zM512 530v182q0 8-5 13-6 6-13 6h-110q-7 0-13-6-5-5-5-13v-182q0-8 5-13 6-6 13-6h110q7 0 13 6 5 5 5 13zM878 511v-530q0-23-16-39t-39-16h-768q-23 0-39 16t-16 39v768q0 23 16 39t39 16h530q23 0 50-12 28-11 44-27l160-160q16-16 27-43 12-28 12-51v0z" />
<glyph unicode="&#xf0c8;" glyph-name="uniF0C8" d="M878 639v-548q0-68-49-117-48-48-116-48h-548q-68 0-117 48-48 49-48 117v548q0 68 48 117 49 48 117 48h548q68 0 116-48 49-49 49-117v0z" />
<glyph unicode="&#xf0c9;" glyph-name="uniF0C9" d="M878 109v-73q0-15-11-26t-26-11h-804q-15 0-26 11t-11 26v73q0 15 11 26t26 11h804q15 0 26-11t11-26v0zM878 402v-74q0-14-11-25t-26-11h-804q-15 0-26 11t-11 25v74q0 14 11 25t26 11h804q15 0 26-11t11-25v0zM878 694v-73q0-15-11-26t-26-11h-804q-15 0-26 11t-11 26v73q0 15 11 26t26 11h804q15 0 26-11t11-26v0z" />
<glyph unicode="&#xf0ca;" glyph-name="uniF0CA" d="M219 72q0-45-32-77t-77-32q-46 0-78 32t-32 77q0 46 32 78t78 32q45 0 77-32t32-78v0zM219 365q0-46-32-78t-77-32q-46 0-78 32t-32 78 32 78 78 32q45 0 77-32t32-78v0zM1024 127v-109q0-8-5-13-6-6-13-6h-695q-8 0-13 6-5 5-5 13v109q0 8 5 13 5 6 13 6h695q7 0 13-6 5-5 5-13v0zM219 658q0-46-32-78t-77-32q-46 0-78 32t-32 78q0 45 32 77t78 32q45 0 77-32t32-77zM1024 420v-110q0-7-5-13-6-5-13-5h-695q-8 0-13 5-5 6-5 13v110q0 7 5 13 5 5 13 5h695q7 0 13-5 5-6 5-13v0zM1024 712v-109q0-8-5-13-6-6-13-6h-695q-8 0-13 6-5 5-5 13v109q0 8 5 13 5 6 13 6h695q7 0 13-6 5-5 5-13z" />
<glyph unicode="&#xf0cb;" glyph-name="uniF0CB" d="M218-49q0-45-31-72-32-26-78-26-60 0-98 38l32 50q28-26 61-26 17 0 29 9 12 8 12 24 0 36-60 32l-15 32q5 6 19 25t24 31q10 11 21 22v0h-27q-19-1-28-1v-30h-61v87h191v-51l-55-65q29-7 47-28 17-22 17-51v0zM219 310v-91h-207q-3 20-3 31 0 29 13 53t32 39q19 14 38 27 19 12 32 25 14 12 14 25 0 15-9 22-8 8-22 8-26 0-46-33l-49 34q14 29 41 45t60 16q42 0 70-23 29-24 29-65 0-28-19-52-20-24-43-37-24-13-43-29-20-15-21-30h73v35h60zM1024 127v-109q0-8-5-13-6-6-13-6h-695q-8 0-13 6-5 5-5 13v109q0 8 5 13 5 6 13 6h695q7 0 13-6 5-5 5-13zM219 641v-57h-191v57h61v70q1 46 1 69v7h-1q-5-10-29-31l-41 43 78 73h61v-231h61zM1024 420v-110q0-7-5-13-6-5-13-5h-695q-8 0-13 5-5 6-5 13v110q0 8 5 13t13 5h695q7 0 13-5 5-6 5-13v0zM1024 712v-109q0-8-5-13-6-6-13-6h-695q-8 0-13 6-5 5-5 13v109q0 8 5 13 5 6 13 6h695q7 0 13-6 5-5 5-13z" />
<glyph unicode="&#xf0cc;" glyph-name="uniF0CC" d="M1006 365q8 0 13-5t5-13v-37q0-8-5-13t-13-5h-988q-8 0-13 5t-5 13v37q0 8 5 13t13 5h988zM276 402q-16 20-29 45-28 56-28 108 0 103 77 176 76 73 225 73 28 0 95-11 38-7 101-27 6-22 12-68 8-70 8-104 0-11-3-26l-7-2-48 4-8 1q-28 85-58 117-51 52-120 52-66 0-104-34-39-33-39-83 0-42 38-80 38-39 159-74 40-11 99-38 33-16 55-29h-425zM566 255h235q4-22 4-52 0-64-24-121-13-32-40-60-22-20-63-46-45-28-87-38-46-12-116-12-65 0-112 13l-80 23q-32 9-41 16-4 5-4 13v7q0 62-1 89-1 17 0 39l1 21v25l58 2q9-20 17-41 9-21 13-32t7-15q20-33 46-54 24-21 60-33 34-12 75-12 37 0 80 15 44 15 69 49 27 35 27 74 0 48-46 90-19 16-78 40v0z" />
<glyph unicode="&#xf0cd;" glyph-name="uniF0CD" d="M27 750q-21 1-25 2l-2 50q7 1 23 1 34 0 64-3 75-4 95-4 49 0 96 2 66 2 83 3 32 0 49 1v-8l1-36v-6q-34-5-71-5-34 0-45-14-8-8-8-75 0-8 1-19v-15l1-130 8-160q3-71 29-116 20-34 55-52 50-27 101-27 59 0 109 16 32 10 56 29 28 20 38 36 20 32 30 66 12 41 12 130 0 46-2 74t-6 70q-5 42-8 91l-2 33q-3 39-14 51-20 20-44 19l-57-1-8 2 1 49h48l117-6q43-2 112 6l10-1q4-22 4-29 0-4-3-18-25-7-48-8-41-6-45-9-8-9-8-24 0-4 1-15v-18q5-11 13-226 3-112-9-174-8-43-23-70-22-37-64-70-43-32-104-51-62-19-146-19-95 0-162 27-68 27-102 69-35 44-48 112-9 46-9 135v191q0 107-10 121-14 21-84 23v0zM878-56v37q0 8-5 13-6 5-14 5h-841q-8 0-13-5t-5-13v-37q0-8 5-13t13-5h841q8 0 14 5 5 5 5 13z" />
<glyph unicode="&#xf0ce;" glyph-name="uniF0CE" horiz-adv-x="951" d="M293 91v109q0 8-6 14-5 5-13 5h-183q-8 0-13-5-5-6-5-14v-109q0-8 5-13 5-6 13-6h183q8 0 13 6 6 5 6 13v0zM293 310v110q0 8-6 13-5 5-13 5h-183q-8 0-13-5t-5-13v-110q0-8 5-13t13-5h183q8 0 13 5 6 5 6 13v0zM585 91v109q0 8-5 14-5 5-13 5h-183q-8 0-13-5-5-6-5-14v-109q0-8 5-13 5-6 13-6h183q8 0 13 6 5 5 5 13zM293 530v109q0 8-6 13-5 6-13 6h-183q-8 0-13-6-5-5-5-13v-109q0-8 5-14 5-5 13-5h183q8 0 13 5 6 6 6 14v0zM585 310v110q0 8-5 13t-13 5h-183q-8 0-13-5t-5-13v-110q0-8 5-13t13-5h183q8 0 13 5t5 13zM878 91v109q0 8-5 14-6 5-14 5h-182q-8 0-14-5-5-6-5-14v-109q0-8 5-13 6-6 14-6h182q8 0 14 6 5 5 5 13zM585 530v109q0 8-5 13-5 6-13 6h-183q-8 0-13-6-5-5-5-13v-109q0-8 5-14 5-5 13-5h183q8 0 13 5 5 6 5 14zM878 310v110q0 8-5 13-6 5-14 5h-182q-8 0-14-5-5-5-5-13v-110q0-8 5-13 6-5 14-5h182q8 0 14 5 5 5 5 13zM878 530v109q0 8-5 13-6 6-14 6h-182q-8 0-14-6-5-5-5-13v-109q0-8 5-14 6-5 14-5h182q8 0 14 5 5 6 5 14zM951 712v-621q0-38-27-65t-65-27h-768q-37 0-64 27t-27 65v621q0 38 27 65t64 27h768q38 0 65-27t27-65z" />
<glyph unicode="&#xf0d0;" glyph-name="uniF0D0" horiz-adv-x="951" d="M680 545l167 167-61 62-167-168zM935 712q0-15-10-25l-735-735q-10-10-25-10-16 0-26 10l-113 113q-11 10-11 26 0 15 11 25l735 735q10 11 25 11 16 0 26-11l113-113q10-10 10-26zM163 821l56-17-56-17-17-56-17 56-56 17 56 17 17 56zM363 728l112-34-112-34-34-112-34 112-112 34 112 34 34 112zM895 455l56-17-56-17-17-56-17 56-56 17 56 17 17 56zM529 821l56-17-56-17-17-56-17 56-56 17 56 17 17 56z" />
<glyph unicode="&#xf0d1;" glyph-name="uniF0D1" d="M366 72q0 30-22 52t-51 22q-30 0-52-22t-22-52q0-29 22-51t52-22q29 0 51 22t22 51zM146 365h220v146h-91q-7 0-12-5l-112-111q-5-5-5-13v-17zM878 72q0 30-22 52t-51 22q-30 0-52-22t-22-52q0-29 22-51t52-22q29 0 51 22t22 51v0zM1024 694v-585q0-9-2-15-3-7-8-11t-9-6q-4-3-14-4-9-1-13-1h-27q0-60-43-103t-103-43q-61 0-104 43t-43 103h-219q0-60-43-103t-103-43q-61 0-104 43t-43 103h-64q-3 0-13 1-9 1-13 4-4 2-9 6-6 4-8 11-2 6-2 15 0 15 10 26 11 11 26 11v224t1 20q1 13 4 21t8 17q5 10 13 18l113 113q11 11 29 18t33 7h92v110q0 15 11 26 10 11 25 11h585q15 0 26-11t11-26v0z" />
<glyph unicode="&#xf0d2;" glyph-name="uniF0D2" d="M878 365q0-119-59-220t-160-160-220-59q-64 0-125 18 34 54 45 94 5 20 31 121 11-23 41-39 31-16 66-16 69 0 123 39t84 108q30 68 30 154 0 65-34 122t-99 93q-64 36-146 36-60 0-112-16-52-17-88-44-36-28-62-63-26-36-38-74-13-39-13-77 0-59 23-104 23-46 67-64 17-7 22 12 1 4 4 17 4 14 5 17 3 14-6 25-30 35-30 86 0 87 60 149t156 62q87 0 135-47t48-122q0-97-39-165t-100-68q-35 0-56 25t-13 59q4 20 15 54 10 33 17 59 7 25 7 43 0 28-16 47-15 19-44 19-35 0-60-32-24-33-24-82 0-41 14-69l-57-239q-9-40-7-101-118 52-190 160-73 109-73 242 0 119 59 220t160 160q100 59 220 59 119 0 220-59t160-160 59-220v0z" />
<glyph unicode="&#xf0d3;" glyph-name="uniF0D3" d="M713 804q68 0 116-48 49-49 49-117v-548q0-68-49-117-48-48-116-48h-414q48 70 62 120l30 120q12-23 42-39t64-16q104 0 169 85 65 84 65 213 0 48-20 93t-55 79q-35 35-87 56t-112 21-112-17q-51-16-87-43-36-28-61-63-26-35-38-73-13-38-13-76 0-58 23-103 22-44 66-63 8-2 14 0 6 3 8 11 6 25 9 35 3 13-7 24-28 36-28 86 0 86 59 146 59 61 155 61 85 0 132-46 48-46 48-120 0-96-38-163-39-68-100-68-34 0-55 25t-13 59q4 20 15 53t17 58 6 43q0 28-15 46-15 19-43 19-35 0-59-32-25-33-25-80 0-41 14-69l-56-237q-14-57-4-145h-104q-68 0-117 48-48 49-48 117v548q0 68 48 117 49 48 117 48h548z" />
<glyph unicode="&#xf0d4;" glyph-name="uniF0D4" d="M387-33q0-22-5-41h-217q-55 0-98 32-44 33-60 85 14 25 40 44t57 28q31 10 61 14t61 4q19 0 28-1 4-2 18-12t19-13q4-4 17-13 13-10 19-15l15-15q11-9 15-16 5-8 12-18 8-10 10-20 3-9 6-20 2-11 2-23v0zM220 167q-134-4-220-48v247q59-67 156-67 18 0 40 3-12-35-12-50 0-38 36-85v0zM319 459q0-57-25-91-25-35-80-35-29 0-56 15-26 15-44 38-19 24-32 54-14 30-21 59-6 30-6 57 0 55 29 94 30 40 83 40 38 0 68-24 30-23 48-59t27-75q9-38 9-73v0zM878 511v-420q0-68-49-117-48-48-116-48h-267q22 42 22 90 0 38-13 70-12 32-31 53t-41 41q-22 19-42 34-19 14-31 31-13 17-13 34 0 20 13 39 13 18 32 35t38 37q18 20 31 53 14 33 14 75 0 41-16 83-15 41-43 67-3 4-8 7-4 3-7 4-2 1-6 5-3 4-6 10h78l77 37h-250q-79 0-140-22t-104-77q0 72 46 122 47 50 119 50h548q68 0 116-48 49-49 49-117v-55h-147v147h-73v-147h-146v-73h146v-146h73v146h147z" />
<glyph unicode="&#xf0d5;" glyph-name="uniF0D5" horiz-adv-x="951" d="M501 40q0 12-3 23t-5 21q-3 9-10 19-8 11-12 18-5 7-16 17-10 9-15 14-6 5-19 15-12 9-17 13-5 3-19 13t-18 12q-9 1-28 1-31 0-61-4-29-4-61-14t-56-26-40-43q-15-27-15-61 0-39 20-70 20-30 53-48 33-17 69-26 36-8 73-8 33 0 64 7 30 7 57 22t43 42 16 63v0zM432 532q0 35-9 73-10 39-27 75-18 36-48 59-31 24-69 24-53 0-82-40-29-39-29-94 0-27 7-57 6-29 20-59t32-53q18-24 44-39 27-15 56-15 55 0 80 35 25 34 25 91v0zM357 804h250l-77-45h-77q40-26 62-72 23-47 23-97 0-42-13-75-14-33-32-53-19-20-38-37t-32-35-13-38q0-15 9-29 10-15 25-28t33-27 37-32q18-17 33-38 15-20 25-48 9-28 9-61 0-91-80-161-87-75-240-75-34 0-68 6-35 5-70 19-35 13-62 33t-44 51-17 69q0 35 21 77 18 37 55 64 37 26 83 40t88 21q43 6 86 7-36 48-36 86 0 6 1 13t3 11q1 5 4 12 3 8 4 13-23-3-40-3-85 0-146 56t-61 140q0 80 55 144 54 63 133 80 54 12 107 12v0zM951 658v-74h-146v-146h-74v146h-146v74h146v146h74v-146h146z" />
</font>
</defs>
</svg>
